<?xml version="1.0" standalone="no"?>
<!DOCTYPE svg PUBLIC "-//W3C//DTD SVG 1.1//EN" "http://www.w3.org/Graphics/SVG/1.1/DTD/svg11.dtd" >
<svg xmlns="http://www.w3.org/2000/svg">
<metadata></metadata>
<defs>
<font id="utm_swiss_condensedregular" horiz-adv-x="1200" >
<font-face units-per-em="2048" ascent="1638" descent="-410" />
<missing-glyph horiz-adv-x="549" />
<glyph horiz-adv-x="2048" />
<glyph horiz-adv-x="2048" />
<glyph unicode="&#xd;" horiz-adv-x="508" />
<glyph unicode=" "  horiz-adv-x="549" />
<glyph unicode="&#x09;" horiz-adv-x="549" />
<glyph unicode="&#xa0;" horiz-adv-x="549" />
<glyph unicode="!" horiz-adv-x="530" d="M172 1102v438h186v-438l-43 -723h-100zM180 0v211h170v-211h-170z" />
<glyph unicode="&#x22;" horiz-adv-x="614" d="M90 881v555h139v-555h-139zM385 881v555h139v-555h-139z" />
<glyph unicode="#" horiz-adv-x="1575" d="M88 449l53 147h310l92 262h-330l51 146h332l162 454h166l-162 -454h256l164 454h164l-160 -454h301l-51 -146h-303l-93 -262h322l-51 -147h-322l-162 -453h-165l161 453h-258l-162 -453h-165l159 453h-309zM616 594h261l92 264h-260z" />
<glyph unicode="$" horiz-adv-x="1020" d="M76 432v36q0 16 2 24h168l-1 -25l-1 -23q0 -155 50 -229t155 -74h8v578q-191 66 -276 165t-85 257q0 168 97 272q50 53 116 82t148 29v139h88v-137q173 -17 261.5 -112t88.5 -265v-23h-164v9q0 113 -45.5 174.5t-140.5 74.5v-518q219 -78 306 -175.5t87 -260.5 q0 -198 -103 -310q-53 -58 -125 -89t-165 -31v-199h-88v197q-92 0 -164.5 31t-122.5 87q-94 108 -94 316zM264 1141q0 -92 45 -150t148 -94l-1 489q-86 -9 -139 -76t-53 -169zM545 139q50 0 90.5 20.5t71.5 59.5q59 73 59 197q0 99 -54 165t-167 103v-545z" />
<glyph unicode="%" horiz-adv-x="1430" d="M94 1153q0 184 69 276.5t208 92.5q144 0 214 -91t70 -276q0 -186 -72.5 -285.5t-209.5 -99.5q-142 0 -210.5 93.5t-68.5 289.5zM236 1128q0 -124 32.5 -179.5t104.5 -55.5q71 0 106 64t35 200q0 122 -35 182t-106 60q-74 0 -105.5 -59.5t-31.5 -211.5zM305 -29l694 1579 h117l-692 -1579h-119zM774 383q0 184 69 276.5t208 92.5q144 0 214 -91t70 -278q0 -186 -72 -284.5t-208 -98.5q-144 0 -212.5 93.5t-68.5 289.5zM913 358q0 -121 33.5 -178t106.5 -57q71 0 106 64t35 200q0 122 -35 182t-106 60q-75 0 -107.5 -60.5t-32.5 -210.5z" />
<glyph unicode="&#x26;" horiz-adv-x="1253" d="M115 424q0 144 72 252.5t235 206.5q-68 90 -108 182.5t-40 165.5q0 138 84.5 225.5t223.5 87.5q130 0 215.5 -83.5t85.5 -213.5q0 -113 -63 -209t-193 -176l295 -430q5 15 13.5 52t15.5 73t13 93q3 27 7 67h164q0 -59 -12 -126q-8 -47 -27 -114q-30 -104 -78 -178 l207 -299h-199l-106 150q-73 -86 -170.5 -131.5t-210.5 -45.5q-188 0 -306 125q-58 63 -88 144.5t-30 181.5zM289 432q0 -128 80 -217q41 -44 90 -66t110 -22q74 0 144 39t123 110l-338 492q-106 -69 -157.5 -151t-51.5 -185zM436 1239q0 -49 30.5 -119.5t86.5 -146.5 q79 52 123.5 122.5t44.5 145.5q0 74 -38.5 118t-104.5 44q-67 0 -104.5 -43.5t-37.5 -120.5z" />
<glyph unicode="'" horiz-adv-x="317" d="M90 881v555h139v-555h-139z" />
<glyph unicode="(" horiz-adv-x="653" d="M186 553q0 268 78.5 512t239.5 475h117q-134 -207 -195 -439q-29 -113 -45 -251.5t-16 -290.5q0 -211 21.5 -364.5t70.5 -282.5q30 -81 72 -175q17 -39 42.5 -90.5t49.5 -95.5h-117q-167 274 -242.5 511t-75.5 491z" />
<glyph unicode=")" horiz-adv-x="653" d="M55 -449q50 97 87 179q19 43 38 89.5t37 92.5q47 128 70.5 287t23.5 360q0 310 -60.5 541t-195.5 440h117q159 -231 238 -476.5t79 -510.5q0 -251 -75.5 -490.5t-241.5 -511.5h-117z" />
<glyph unicode="*" horiz-adv-x="1024" d="M121 1206l45 137l283 -102v299h122v-299l281 98l51 -131l-297 -82l201 -245l-117 -84l-180 260l-178 -260l-117 84l201 245z" />
<glyph unicode="+" horiz-adv-x="1706" d="M254 541v139h528v541h142v-541h528v-139h-528v-541h-142v541h-528z" />
<glyph unicode="," horiz-adv-x="512" d="M160 0v211h182v-211q0 -116 -48.5 -194.5t-133.5 -100.5v96q41 7 63.5 56.5t22.5 132.5v10h-86z" />
<glyph unicode="-" horiz-adv-x="676" d="M90 485v181h494v-181h-494z" />
<glyph unicode="." horiz-adv-x="512" d="M164 0v211h182v-211h-182z" />
<glyph unicode="/" horiz-adv-x="569" d="M-78 -190l549 1767h111l-549 -1767h-111z" />
<glyph unicode="0" horiz-adv-x="1020" d="M94 762q0 432 96 609t320 177q114 0 194 -49t138 -153q43 -78 64 -214q10 -67 15 -157.5t5 -214.5q0 -430 -95 -610.5t-315 -180.5q-227 0 -324.5 177t-97.5 616zM272 766q0 -186 13 -314t40 -197q54 -136 187 -136q131 0 183.5 124t52.5 521q0 185 -13 310.5t-40 192.5 q-53 132 -185 132q-134 0 -186 -127q-26 -64 -39 -188.5t-13 -317.5z" />
<glyph unicode="1" horiz-adv-x="1020" d="M154 1133v131h20q164 0 247 70q43 36 67 90t24 126h135v-1550h-166v1133h-327z" />
<glyph unicode="2" horiz-adv-x="1020" d="M98 23v36q0 149 66.5 283.5t202.5 255.5l75 67q159 141 207 197q41 47 60.5 113t19.5 149q0 133 -59 204t-168 71q-111 0 -167 -79t-56 -239l1 -17l1 -34h-166l-1 27l-1 28q0 224 103.5 345.5t293.5 121.5q185 0 291 -110.5t106 -308.5q0 -100 -20.5 -177.5t-65 -144 t-201.5 -194.5l-59 -48q-158 -130 -222 -224q-32 -47 -49.5 -94.5t-17.5 -92.5h648v-158l-820 1z" />
<glyph unicode="3" horiz-adv-x="1020" d="M82 444v15h170v-25q0 -160 57.5 -237.5t177.5 -77.5q125 0 190.5 79.5t65.5 233.5q0 153 -74 227t-231 74l-33 -1l-19 -1l-1 141h35q147 0 213.5 66t66.5 207q0 120 -57.5 188t-163.5 68q-101 0 -154 -72t-53 -213v-24h-163v22q0 203 99.5 318.5t274.5 115.5 q179 0 283 -103t104 -282q0 -141 -58 -234t-159 -112q135 -24 201 -117t66 -260q0 -223 -113.5 -347t-319.5 -124q-197 0 -301 122t-104 353z" />
<glyph unicode="4" horiz-adv-x="1020" d="M63 393v150l572 1005h149v-1007h144v-148h-144v-393h-163v393h-558zM205 541h416l18 788z" />
<glyph unicode="5" horiz-adv-x="1020" d="M88 405l168 1v-13q0 -129 60 -200.5t169 -71.5q119 0 183.5 97t64.5 278q0 182 -63 274t-189 92q-82 0 -138 -37t-79 -106l-145 12l84 791h649v-156h-516l-55 -459q21 49 88.5 80t152.5 31q180 0 284.5 -133t104.5 -367q0 -259 -111 -404t-313 -145q-192 0 -295.5 112.5 t-103.5 323.5z" />
<glyph unicode="6" horiz-adv-x="1020" d="M96 707q0 451 105 647t340 196q162 0 259 -100t97 -268h-170v10q0 97 -51.5 153t-140.5 56q-137 0 -198 -124q-33 -68 -54 -181q-25 -135 -25 -299q36 92 111.5 142t177.5 50q183 0 288 -129t105 -358q0 -246 -111 -389.5t-299 -143.5q-226 0 -330 175.5t-104 562.5z M279 500q0 -184 65.5 -283.5t185.5 -99.5q112 0 173 98t61 279q0 169 -62.5 258.5t-183.5 89.5q-123 0 -181 -82t-58 -260z" />
<glyph unicode="7" horiz-adv-x="1020" d="M92 1354v168h836v-148q-223 -295 -348 -644q-70 -194 -105 -356q-43 -196 -43 -374h-192q24 197 68.5 376.5t113.5 350.5q136 339 358 627h-688z" />
<glyph unicode="8" horiz-adv-x="1020" d="M94 428q0 168 70.5 274.5t197.5 128.5q-107 30 -162 111t-55 213q0 186 98.5 290.5t272.5 104.5q168 0 267.5 -102.5t99.5 -280.5q0 -133 -54.5 -215t-166.5 -114q135 -30 199.5 -124.5t64.5 -262.5q0 -229 -108.5 -355.5t-307.5 -126.5q-189 0 -302.5 124.5 t-113.5 334.5zM270 459q0 -169 61.5 -254.5t182.5 -85.5q109 0 172.5 83.5t63.5 229.5q0 167 -60.5 246.5t-185.5 79.5q-110 0 -172 -78.5t-62 -220.5zM311 1149q0 -112 53.5 -178t143.5 -66q100 0 153.5 65.5t53.5 186.5q0 115 -54.5 181.5t-152.5 66.5q-96 0 -146.5 -65.5 t-50.5 -190.5z" />
<glyph unicode="9" horiz-adv-x="1020" d="M80 1018q0 245 111 388.5t298 143.5q228 0 331.5 -175t103.5 -562q0 -450 -104.5 -647t-340.5 -197q-162 0 -260 101t-98 268h172v-10q0 -96 51 -152.5t141 -56.5q135 0 197 123q34 70 55 181q25 133 25 298q-36 -92 -111 -142.5t-178 -50.5q-183 0 -288 130t-105 360z M256 1024q0 -172 62.5 -259t183.5 -87q123 0 181 83t58 259q0 183 -65.5 282t-186.5 99q-111 0 -172 -97t-61 -280z" />
<glyph unicode=":" horiz-adv-x="512" d="M164 0v211h182v-211h-182zM164 926v211h182v-211h-182z" />
<glyph unicode=";" horiz-adv-x="512" d="M164 0v211h182v-211q0 -116 -48.5 -194.5t-133.5 -100.5v96q40 7 64 56.5t24 132.5v10h-88zM164 926v211h182v-211h-182z" />
<glyph unicode="&#x3c;" horiz-adv-x="1706" d="M264 547v129l1178 483v-153l-969 -396l969 -393v-154z" />
<glyph unicode="=" horiz-adv-x="1706" d="M254 342v139h1198v-139h-1198zM254 739v140h1198v-140h-1198z" />
<glyph unicode="&#x3e;" horiz-adv-x="1706" d="M264 63v154l971 393l-971 396v153l1178 -483v-129z" />
<glyph unicode="?" horiz-adv-x="1018" d="M154 1092v26q0 222 97.5 340.5t283.5 118.5q177 0 281 -107t104 -290q0 -185 -180 -397l-3 -3l-2 -2q-149 -175 -149 -329v-36q0 -17 2 -25h-158v12q0 6 -2 22v43q0 104 30.5 185.5t133.5 203.5l16 19q131 155 131 311q0 112 -54.5 177.5t-147.5 65.5 q-105 0 -161.5 -78.5t-56.5 -226.5v-30h-165zM422 0v211h170v-211h-170z" />
<glyph unicode="@" horiz-adv-x="2048" d="M106 522q0 166 51.5 312.5t151.5 269.5q146 177 352 269.5t455 92.5q161 0 309 -45t254 -127q127 -98 196 -230t69 -284q0 -175 -63.5 -314.5t-184.5 -236.5q-31 -25 -70 -46.5t-80 -36.5q-82 -29 -166 -29q-99 0 -149.5 39t-50.5 118v19q-54 -88 -128.5 -131t-172.5 -43 q-153 0 -233.5 85t-80.5 247q0 233 138 393t339 160q43 0 78.5 -9t66.5 -29q60 -36 97 -112l57 115h132l-146 -576l-6 -31l-2 -28q0 -45 25.5 -69.5t74.5 -24.5q25 0 50 6t52 20q53 27 107 76q78 73 124 185t46 235q0 259 -190.5 420t-499.5 161q-134 0 -247 -27.5 t-210 -86.5q-189 -113 -295 -299t-106 -410q0 -177 61 -307.5t193 -230.5q99 -76 236 -118t288 -42q169 0 327 48t294 142l55 -82q-145 -109 -313 -166t-351 -57q-192 0 -349.5 47t-278.5 140q-152 116 -229 274t-77 354zM725 446q0 -105 48 -162t138 -57q96 0 174 69 t105 179l59 236q-16 86 -68 135t-130 49q-138 0 -232 -130t-94 -319z" />
<glyph unicode="A" horiz-adv-x="1126" d="M31 0l420 1540h219l426 -1540h-174l-117 444h-488l-112 -444h-174zM356 600h410l-205 807z" />
<glyph unicode="B" horiz-adv-x="1108" d="M137 0v1540h402q217 0 314 -91t97 -294q0 -140 -52 -222.5t-161 -113.5q133 -27 197.5 -120t64.5 -257q0 -211 -116.5 -326.5t-327.5 -115.5h-418zM303 152h219q155 0 225 66t70 216q0 168 -73.5 238.5t-251.5 70.5h-189v-591zM303 885h180q161 0 227 60t66 206 q0 138 -66.5 195t-236.5 57h-170v-518z" />
<glyph unicode="C" horiz-adv-x="1157" d="M106 766q0 429 113.5 620t366.5 191q209 0 324.5 -123t115.5 -348v-19h-166q0 158 -74 248t-202 90q-155 0 -225 -152.5t-70 -506.5q0 -175 17 -296t54 -197q71 -146 234 -146q131 0 201.5 108t70.5 306v24h170q0 -145 -31 -257t-91 -191q-118 -154 -341 -154 q-236 0 -351.5 196.5t-115.5 606.5z" />
<glyph unicode="D" horiz-adv-x="1192" d="M137 0v1540h436q260 0 385 -175t125 -544q0 -261 -42.5 -429.5t-133.5 -266.5q-61 -67 -141 -96t-231 -29h-398zM309 147h223q108 0 167.5 21.5t93.5 71.5q54 78 78 196t24 332q0 372 -78 497.5t-291 125.5h-217v-1244z" />
<glyph unicode="E" horiz-adv-x="1004" d="M137 0v1540h764v-160h-594v-495h555v-156h-555v-567h600v-162h-770z" />
<glyph unicode="F" horiz-adv-x="885" d="M137 0v1540h711v-156h-535v-495h498v-160h-498v-729h-176z" />
<glyph unicode="G" horiz-adv-x="1214" d="M106 780q0 417 123 607t396 190q207 0 326 -126q59 -62 89.5 -150.5t30.5 -200.5h-170q0 79 -20 138.5t-59 105.5q-74 86 -206 86q-179 0 -255 -157.5t-76 -541.5q0 -308 81 -458q41 -74 102 -111t146 -37q150 0 230 116t80 337l-1 41l-1 28h-349v156h514v-803h-133 l-10 213q-42 -121 -133.5 -185.5t-220.5 -64.5q-248 0 -366 198t-118 619z" />
<glyph unicode="H" d="M137 0v1540h176v-635h574v635h176v-1540h-176v750h-574v-750h-176z" />
<glyph unicode="I" horiz-adv-x="451" d="M137 0v1540h176v-1540h-176z" />
<glyph unicode="J" horiz-adv-x="862" d="M35 352v125h166v-149q0 -109 44 -163t130 -54q104 0 144 64q20 32 30 102t10 184v1079h166v-1196q0 -192 -87.5 -285.5t-270.5 -93.5q-163 0 -247.5 98t-84.5 289z" />
<glyph unicode="K" horiz-adv-x="1110" d="M137 0v1540h170v-741l557 741h199l-479 -622l514 -918h-209l-420 768l-162 -211v-557h-170z" />
<glyph unicode="L" horiz-adv-x="975" d="M137 0v1540h172v-1374h615v-166h-787z" />
<glyph unicode="M" horiz-adv-x="1511" d="M135 0v1540h289l324 -1313l339 1313h285v-1540h-168v1452l-375 -1452h-167l-359 1452v-1452h-168z" />
<glyph unicode="N" horiz-adv-x="1188" d="M137 0v1540h230l534 -1321l-16 1321h166v-1540h-220l-542 1360l14 -1360h-166z" />
<glyph unicode="O" d="M106 770q0 431 116.5 619t377.5 188q263 0 378.5 -187t115.5 -620q0 -434 -114.5 -620.5t-379.5 -186.5q-259 0 -376.5 189.5t-117.5 617.5zM285 770q0 -372 70.5 -513.5t244.5 -141.5t244.5 139t70.5 516q0 376 -69.5 514.5t-245.5 138.5q-173 0 -244 -142.5t-71 -510.5 z" />
<glyph unicode="P" horiz-adv-x="1085" d="M137 0v1540h395q252 0 368 -103t116 -327q0 -228 -120.5 -345.5t-356.5 -117.5h-230v-647h-172zM309 803h226q156 0 229.5 75t73.5 234q0 148 -74 213.5t-240 65.5h-215v-588z" />
<glyph unicode="Q" d="M106 770q0 431 116.5 619t377.5 188q263 0 378.5 -187t115.5 -620q0 -107 -6 -193.5t-20 -164.5q-25 -148 -75 -228l174 -141l-92 -117l-168 135q-43 -48 -122.5 -73t-184.5 -25q-259 0 -376.5 189.5t-117.5 617.5zM287 770q0 -373 69.5 -514t243.5 -141q65 0 105 13 q42 12 75 42l-162 137l99 115l145 -123q26 92 39.5 209t13.5 242q0 394 -69.5 533.5t-245.5 139.5q-172 0 -242.5 -141.5t-70.5 -511.5z" />
<glyph unicode="R" horiz-adv-x="1196" d="M137 0v1540h432q239 0 355 -97t116 -298q0 -154 -69.5 -246.5t-216.5 -130.5q62 0 110 -22t82 -61q63 -72 78 -223l11 -155q0 -118 23 -197.5t58 -109.5h-213q-17 28 -29 93.5t-12 157.5q0 49 -4 93.5t-6 63.5q-14 159 -82.5 217.5t-245.5 58.5h-219v-684h-168zM305 834 h209q179 0 264.5 69.5t85.5 216.5q0 140 -75.5 204.5t-241.5 64.5h-242v-555z" />
<glyph unicode="S" horiz-adv-x="1098" d="M102 438l1 25l1 26h164v-55q0 -156 72 -236.5t215 -80.5q128 0 201 77.5t73 211.5q0 107 -44 165.5t-201 118.5l-104 39q-185 67 -226 102q-63 57 -95 136.5t-32 181.5q0 200 111 314t309 114q187 0 294 -105t107 -290l-1 -20l-1 -19h-158v16q0 129 -63.5 200t-179.5 71 q-121 0 -189.5 -67t-68.5 -183q0 -109 46.5 -169t205.5 -118l56 -21q241 -89 288 -133q57 -52 84 -129q14 -39 21 -82.5t7 -99.5q0 -219 -120.5 -341t-337.5 -122q-214 0 -324.5 120.5t-110.5 352.5z" />
<glyph unicode="T" horiz-adv-x="995" d="M29 1382v158h938v-158h-369v-1382h-176v1382h-393z" />
<glyph unicode="U" horiz-adv-x="1180" d="M139 535v1005h172v-1036q0 -216 61.5 -300.5t209.5 -84.5q149 0 220.5 93.5t71.5 291.5v1036h168v-1005q0 -197 -21.5 -276.5t-74.5 -141.5q-63 -75 -156 -113.5t-210 -38.5q-122 0 -217.5 41.5t-151.5 118.5q-38 49 -56 133q-8 43 -12 108.5t-4 168.5z" />
<glyph unicode="V" horiz-adv-x="1075" d="M6 1540h187l346 -1327l356 1327h172l-424 -1540h-207z" />
<glyph unicode="W" horiz-adv-x="1620" d="M25 1540h178l241 -1302l273 1302h196l267 -1292l245 1292h168l-325 -1540h-185l-270 1257l-274 -1257h-189z" />
<glyph unicode="X" horiz-adv-x="1012" d="M-25 0l428 797l-407 743h209l305 -584l309 584h197l-412 -739l432 -801h-207l-325 645l-330 -645h-199z" />
<glyph unicode="Y" horiz-adv-x="1028" d="M-31 1540h205l340 -758l356 758h187l-459 -944v-596h-174v596z" />
<glyph unicode="Z" horiz-adv-x="905" d="M47 0v160l621 1220h-586v160h768v-158l-617 -1216h625v-166h-811z" />
<glyph unicode="[" horiz-adv-x="653" d="M233 -434v1974h363v-123h-197v-1726h197v-125h-363z" />
<glyph unicode="\" horiz-adv-x="569" d="M0 1577h111l548 -1767h-110z" />
<glyph unicode="]" horiz-adv-x="653" d="M57 -309h197v1726h-197v123h363v-1974h-363v125z" />
<glyph unicode="^" horiz-adv-x="2048" d="M420 901l510 557h186l510 -557h-180l-422 420l-424 -420h-180z" />
<glyph unicode="_" horiz-adv-x="1024" d="M0 -340h1024v-143h-1024v143z" />
<glyph unicode="`" horiz-adv-x="1024" d="M285 1546h178l170 -270h-101z" />
<glyph unicode="a" horiz-adv-x="913" d="M90 291q0 148 64.5 226.5t278.5 150.5l3 1q176 59 176 138v106q0 71 -40 103.5t-130 32.5q-84 0 -127 -45t-43 -138v-20h-151q0 171 84 257q81 81 256 81q162 0 238.5 -74.5t76.5 -235.5v-673q0 -45 16 -64.5t52 -19.5l22 3l4 1l1 -123l-54 -7l-41 -3q-67 0 -107 43 q-20 22 -31 51.5t-11 70.5q-36 -88 -106.5 -135t-166.5 -47q-124 0 -194 84t-70 236zM252 293q0 -86 38 -133t107 -47q99 0 159 75.5t60 204.5v228q-36 -41 -168 -89l-16 -6q-110 -39 -145 -88t-35 -145z" />
<glyph unicode="b" horiz-adv-x="981" d="M125 0v1540h160v-508q21 65 90.5 105.5t159.5 40.5q168 0 261 -147.5t93 -418.5q0 -309 -92.5 -472t-270.5 -163q-91 0 -160.5 45.5t-91.5 122.5v-145h-149zM274 584q0 -251 53 -357t173 -106q111 0 162 111t51 364q0 224 -53.5 331t-165.5 107q-118 0 -169 -100 t-51 -350z" />
<glyph unicode="c" horiz-adv-x="942" d="M94 584q0 299 96 448.5t291 149.5q159 0 253.5 -99t94.5 -268v-24h-157q0 58 -13.5 104t-38.5 80q-47 63 -133 63q-116 0 -167.5 -105t-51.5 -355q0 -253 51 -359t170 -106q89 0 139 75q25 39 38.5 93t13.5 125h158q0 -207 -96 -322t-271 -115q-192 0 -284.5 151 t-92.5 464z" />
<glyph unicode="d" horiz-adv-x="975" d="M90 612q0 269 93.5 417.5t262.5 148.5q91 0 159.5 -40.5t88.5 -105.5v508h162v-1540h-151v145q-21 -74 -90 -121t-160 -47q-176 0 -270.5 162t-94.5 473zM266 596q0 -249 51 -362t164 -113q119 0 171.5 106t52.5 357q0 254 -49 352t-169 98q-112 0 -166.5 -107 t-54.5 -331z" />
<glyph unicode="e" horiz-adv-x="901" d="M90 563q0 322 88.5 471.5t278.5 149.5q178 0 266 -127t88 -387l-1 -62l-1 -38l-553 -1v-51q0 -218 50 -316t159 -98q84 0 134 75t50 202v8h158q0 -203 -92 -311.5t-262 -108.5q-185 0 -274 145.5t-89 448.5zM256 700h391v31q0 82 -11 139.5t-36 99.5q-45 81 -139 81 q-102 0 -153.5 -86.5t-51.5 -264.5z" />
<glyph unicode="f" horiz-adv-x="532" d="M4 1020v131h162v156q0 125 66 183t206 58q18 0 29 -2q15 0 39 -6l-1 -143l-33 4l-32 2q-58 0 -83 -23.5t-25 -79.5v-149h174v-131h-174v-1020h-166v1020h-162z" />
<glyph unicode="g" horiz-adv-x="973" d="M92 610q0 281 90 424.5t271 143.5q90 0 154 -42.5t91 -119.5v135h156v-1098q0 -211 -102.5 -326.5t-288.5 -115.5q-146 0 -241 77.5t-95 198.5v7h160q0 -67 52 -106q48 -36 136 -36q117 0 170 77t53 249l-1 25l-1 36q-34 -78 -98.5 -117.5t-157.5 -39.5q-174 0 -261 156 t-87 472zM262 573q0 -121 12 -206.5t38 -139.5q51 -104 165 -104q118 0 169.5 105.5t51.5 359.5q0 237 -53.5 344.5t-171.5 107.5q-110 0 -160.5 -109t-50.5 -358z" />
<glyph unicode="h" horiz-adv-x="963" d="M123 0v1540h162v-514q45 74 113 113q71 37 165 37q132 0 206.5 -68.5t74.5 -192.5v-915h-162v838q0 101 -38.5 147.5t-123.5 46.5q-107 0 -171 -68.5t-64 -183.5v-780h-162z" />
<glyph unicode="i" horiz-adv-x="408" d="M121 0v1151h166v-1151h-166zM121 1331v209h166v-209h-166z" />
<glyph unicode="j" horiz-adv-x="426" d="M20 -250h9q69 0 93.5 27.5t24.5 124.5v1249h160v-1262q0 -145 -62.5 -210.5t-203.5 -65.5h-21v137zM147 1333v207h160v-209z" />
<glyph unicode="k" horiz-adv-x="868" d="M123 0v1540h156v-911l393 522h188l-344 -436l371 -715h-197l-284 567l-127 -157v-410h-156z" />
<glyph unicode="l" horiz-adv-x="401" d="M121 0v1540h160v-1540h-160z" />
<glyph unicode="m" horiz-adv-x="1528" d="M123 0v1151h149v-139q46 80 123 123t180 43q96 0 159.5 -42.5t88.5 -125.5q26 42 56.5 73.5t68.5 52.5q74 42 174 42q140 0 214.5 -72.5t74.5 -210.5v-895h-166v795q0 139 -36 189t-126 50q-103 0 -168 -65t-65 -168v-801h-166v801q0 126 -38.5 179.5t-127.5 53.5 q-105 0 -171 -63t-66 -162v-809h-158z" />
<glyph unicode="n" horiz-adv-x="963" d="M123 0v1151h151v-143q42 84 114 126t175 42q152 0 216.5 -77t64.5 -265v-834h-162v846q0 93 -40 139.5t-122 46.5q-108 0 -171.5 -68t-63.5 -184v-780h-162z" />
<glyph unicode="o" horiz-adv-x="989" d="M90 575q0 309 99 459t305 150q207 0 306 -147.5t99 -461.5q0 -313 -98 -459.5t-307 -146.5q-210 0 -307 146t-97 460zM262 575q0 -259 53 -364t179 -105q123 0 177 107.5t54 361.5t-53.5 360.5t-177.5 106.5q-123 0 -177.5 -104.5t-54.5 -362.5z" />
<glyph unicode="p" horiz-adv-x="975" d="M123 -389v1540h156v-145q18 76 87 124t156 48q182 0 273.5 -151t91.5 -449q0 -311 -84.5 -457t-265.5 -146q-83 0 -146 38.5t-102 109.5v-512h-166zM279 580q0 -237 56 -350t173 -113q107 0 156 109q23 53 36 144t13 212q0 120 -12 205.5t-38 139.5q-50 107 -161 107 q-119 0 -171 -104.5t-52 -349.5z" />
<glyph unicode="q" horiz-adv-x="975" d="M88 578q0 298 91.5 449t273.5 151q88 0 156.5 -48.5t86.5 -123.5v145h156v-1540h-166v512q-35 -69 -100.5 -108.5t-147.5 -39.5q-180 0 -265 146.5t-85 456.5zM262 582q0 -245 48 -355t157 -110q115 0 172 113.5t57 349.5q0 245 -51.5 349.5t-171.5 104.5 q-110 0 -160.5 -106.5t-50.5 -345.5z" />
<glyph unicode="r" horiz-adv-x="596" d="M123 0v1151h149v-188q34 99 105 157t162 58l41 -1l28 -3v-172l-29 10l-34 4q-123 0 -192.5 -81.5t-69.5 -229.5v-705h-160z" />
<glyph unicode="s" horiz-adv-x="909" d="M92 322v24h160l-1 -6l-3 -33q0 -93 54 -142.5t155 -49.5q93 0 146.5 50t53.5 136q0 135 -209 208l-4 1q-208 72 -270.5 145t-62.5 209q0 150 89 235t246 85q167 0 252.5 -81.5t85.5 -238.5v-16h-153q0 52 -12 88.5t-35 62.5q-42 48 -131 48q-92 0 -140.5 -44.5 t-48.5 -132.5q0 -38 12 -68.5t37 -51.5q42 -36 175 -80q73 -22 108 -37q117 -44 169 -115t52 -188q0 -173 -100 -267t-283 -94q-168 0 -255 90t-87 263z" />
<glyph unicode="t" horiz-adv-x="504" d="M-10 1018v133h160v307h157v-307h187v-133h-187v-780q0 -72 26.5 -94.5t123.5 -22.5h21q11 0 15 2l1 -141l-40 -2l-79 -3q-113 0 -169 45.5t-56 137.5v858h-160z" />
<glyph unicode="u" horiz-adv-x="963" d="M119 266v885h168v-889q0 -71 35.5 -110t99.5 -39q115 0 180.5 72.5t65.5 201.5v764h163v-1151h-149v150q-33 -86 -108 -133.5t-179 -47.5q-145 0 -210.5 71t-65.5 226z" />
<glyph unicode="v" horiz-adv-x="872" d="M33 1151h176l225 -903l236 903h168l-320 -1151h-174z" />
<glyph unicode="w" horiz-adv-x="1364" d="M43 1151h166l213 -920l178 920h164l199 -922l198 922h160l-279 -1151h-159l-201 893l-176 -893h-168z" />
<glyph unicode="x" horiz-adv-x="825" d="M-18 0l327 596l-305 555h184l222 -414l225 414h180l-307 -543l334 -608h-189l-247 467l-242 -467h-182z" />
<glyph unicode="y" horiz-adv-x="909" d="M35 1151h174l246 -928l254 928h165l-354 -1202q-55 -194 -128.5 -265t-207.5 -71q-9 0 -21.5 1t-26.5 4q-28 3 -58 13v146q23 -10 50 -16q16 -3 24 -4t26 -1q70 0 112 48q20 23 41 70t42 116z" />
<glyph unicode="z" horiz-adv-x="793" d="M47 0v147l494 859h-473v145h665v-129l-504 -868h514v-154h-696z" />
<glyph unicode="{" horiz-adv-x="1024" d="M168 457v149l23 -1l22 -1q128 0 183 60t55 208v246q0 148 22 210t78 97q44 26 107.5 39t170.5 13h37v-150h-41q-119 0 -160.5 -44.5t-41.5 -184.5v-242q0 -159 -44 -226.5t-157 -99.5q112 -27 156.5 -95.5t44.5 -229.5v-242q0 -141 41.5 -185t162.5 -44h39v-148h-43 q-107 0 -168 11.5t-104 37.5q-54 33 -78 97q-22 66 -22 211v245q0 149 -55 210t-185 61l-22 -1z" />
<glyph unicode="|" horiz-adv-x="1024" d="M438 -483v2048h150v-2048h-150z" />
<glyph unicode="}" horiz-adv-x="1024" d="M160 -266h39q120 0 162 45t42 186v240q0 161 44.5 228t156.5 97q-111 30 -156 98t-45 228v242q0 139 -42 184t-162 45h-39v150h37q53 0 95 -3t76 -10q62 -12 107 -39q53 -32 76.5 -96t23.5 -211v-246q0 -146 54 -207t184 -61l22 1l23 1v-149l-22 1l-21 1 q-132 0 -186 -60.5t-54 -210.5v-245q0 -149 -22 -211.5t-78 -96.5q-41 -25 -102 -37t-170 -12h-43v148z" />
<glyph unicode="~" horiz-adv-x="1706" d="M178 451v155q106 72 202 108t185 36q33 0 62.5 -3t64.5 -11q64 -12 164 -48l47 -17q159 -57 240 -57q87 0 179.5 37t207.5 119v-156q-101 -70 -199 -107q-46 -16 -94.5 -25t-95.5 -9t-109 14t-147 44l-34 12l-15 5q-176 60 -273 60q-41 0 -85 -9t-90 -28 q-90 -36 -210 -120z" />
<glyph unicode="&#xad;" horiz-adv-x="676" d="M90 485v181h494v-181h-494z" />
<glyph unicode="&#xc0;" horiz-adv-x="1126" d="M31 0l420 1540h219l426 -1540h-174l-117 444h-488l-112 -444h-174zM336 1958h178l170 -270h-101zM356 600h410l-205 807z" />
<glyph unicode="&#xc1;" horiz-adv-x="1126" d="M31 0l420 1540h219l426 -1540h-174l-117 444h-488l-112 -444h-174zM356 600h410l-205 807zM442 1686l170 272h178l-247 -272h-101z" />
<glyph unicode="&#xc2;" horiz-adv-x="1126" d="M31 0l420 1540h219l426 -1540h-174l-117 444h-488l-112 -444h-174zM307 1688l172 270h168l172 -270h-98l-158 166l-158 -166h-98zM356 600h410l-205 807z" />
<glyph unicode="&#xc3;" horiz-adv-x="1126" d="M31 0l420 1540h219l426 -1540h-174l-117 444h-488l-112 -444h-174zM315 1708q21 95 65.5 145t110.5 50q15 0 21 -2q9 0 20 -4l107 -33l4 -1l24 -3q26 0 44 18t24 52h74q-13 -99 -56 -150t-110 -51q-18 0 -28 2l-31 8l-87 31l-12 3l-22 1q-22 0 -43 -18q-16 -15 -29 -48 h-76zM356 600h410l-205 807z" />
<glyph unicode="&#xc8;" horiz-adv-x="1004" d="M137 0v1540h764v-160h-594v-495h555v-156h-555v-567h600v-162h-770zM308 1958h178l170 -270h-101z" />
<glyph unicode="&#xc9;" horiz-adv-x="1004" d="M137 0v1540h764v-160h-594v-495h555v-156h-555v-567h600v-162h-770zM414 1686l170 272h178l-247 -272h-101z" />
<glyph unicode="&#xca;" horiz-adv-x="1004" d="M137 0v1540h764v-160h-594v-495h555v-156h-555v-567h600v-162h-770zM279 1688l172 270h168l172 -270h-98l-158 166l-158 -166h-98z" />
<glyph unicode="&#xcc;" horiz-adv-x="451" d="M-2 1958h178l170 -270h-101zM137 0v1540h176v-1540h-176z" />
<glyph unicode="&#xcd;" horiz-adv-x="451" d="M104 1686l170 272h178l-247 -272h-101zM137 0v1540h176v-1540h-176z" />
<glyph unicode="&#xd2;" d="M106 770q0 431 116.5 619t377.5 188q263 0 378.5 -187t115.5 -620q0 -434 -114.5 -620.5t-379.5 -186.5q-259 0 -376.5 189.5t-117.5 617.5zM285 770q0 -372 70.5 -513.5t244.5 -141.5t244.5 139t70.5 516q0 376 -69.5 514.5t-245.5 138.5q-173 0 -244 -142.5t-71 -510.5 zM373 1958h178l170 -270h-101z" />
<glyph unicode="&#xd3;" d="M106 770q0 431 116.5 619t377.5 188q263 0 378.5 -187t115.5 -620q0 -434 -114.5 -620.5t-379.5 -186.5q-259 0 -376.5 189.5t-117.5 617.5zM285 770q0 -372 70.5 -513.5t244.5 -141.5t244.5 139t70.5 516q0 376 -69.5 514.5t-245.5 138.5q-173 0 -244 -142.5t-71 -510.5 zM479 1686l170 272h178l-247 -272h-101z" />
<glyph unicode="&#xd4;" d="M106 770q0 431 116.5 619t377.5 188q263 0 378.5 -187t115.5 -620q0 -434 -114.5 -620.5t-379.5 -186.5q-259 0 -376.5 189.5t-117.5 617.5zM285 770q0 -372 70.5 -513.5t244.5 -141.5t244.5 139t70.5 516q0 376 -69.5 514.5t-245.5 138.5q-173 0 -244 -142.5t-71 -510.5 zM344 1688l172 270h168l172 -270h-98l-158 166l-158 -166h-98z" />
<glyph unicode="&#xd5;" d="M106 770q0 431 116.5 619t377.5 188q263 0 378.5 -187t115.5 -620q0 -434 -114.5 -620.5t-379.5 -186.5q-259 0 -376.5 189.5t-117.5 617.5zM285 770q0 -372 70.5 -513.5t244.5 -141.5t244.5 139t70.5 516q0 376 -69.5 514.5t-245.5 138.5q-173 0 -244 -142.5t-71 -510.5 zM352 1708q21 95 65.5 145t110.5 50q15 0 21 -2q9 0 20 -4l107 -33l4 -1l24 -3q26 0 44 18t24 52h74q-13 -99 -56 -150t-110 -51q-18 0 -28 2l-31 8l-87 31l-12 3l-22 1q-22 0 -43 -18q-16 -15 -29 -48h-76z" />
<glyph unicode="&#xd9;" horiz-adv-x="1180" d="M139 535v1005h172v-1036q0 -216 61.5 -300.5t209.5 -84.5q149 0 220.5 93.5t71.5 291.5v1036h168v-1005q0 -197 -21.5 -276.5t-74.5 -141.5q-63 -75 -156 -113.5t-210 -38.5q-122 0 -217.5 41.5t-151.5 118.5q-38 49 -56 133q-8 43 -12 108.5t-4 168.5zM363 1958h178 l170 -270h-101z" />
<glyph unicode="&#xda;" horiz-adv-x="1180" d="M139 535v1005h172v-1036q0 -216 61.5 -300.5t209.5 -84.5q149 0 220.5 93.5t71.5 291.5v1036h168v-1005q0 -197 -21.5 -276.5t-74.5 -141.5q-63 -75 -156 -113.5t-210 -38.5q-122 0 -217.5 41.5t-151.5 118.5q-38 49 -56 133q-8 43 -12 108.5t-4 168.5zM469 1686l170 272 h178l-247 -272h-101z" />
<glyph unicode="&#xdd;" horiz-adv-x="1028" d="M-31 1540h205l340 -758l356 758h187l-459 -944v-596h-174v596zM421 1686l170 272h178l-247 -272h-101z" />
<glyph unicode="&#xe0;" horiz-adv-x="913" d="M90 291q0 148 64.5 226.5t278.5 150.5l3 1q176 59 176 138v106q0 71 -40 103.5t-130 32.5q-84 0 -127 -45t-43 -138v-20h-151q0 171 84 257q81 81 256 81q162 0 238.5 -74.5t76.5 -235.5v-673q0 -45 16 -64.5t52 -19.5l22 3l4 1l1 -123l-54 -7l-41 -3q-67 0 -107 43 q-20 22 -31 51.5t-11 70.5q-36 -88 -106.5 -135t-166.5 -47q-124 0 -194 84t-70 236zM246 1546h178l170 -270h-101zM252 293q0 -86 38 -133t107 -47q99 0 159 75.5t60 204.5v228q-36 -41 -168 -89l-16 -6q-110 -39 -145 -88t-35 -145z" />
<glyph unicode="&#xe1;" horiz-adv-x="913" d="M90 291q0 148 64.5 226.5t278.5 150.5l3 1q176 59 176 138v106q0 71 -40 103.5t-130 32.5q-84 0 -127 -45t-43 -138v-20h-151q0 171 84 257q81 81 256 81q162 0 238.5 -74.5t76.5 -235.5v-673q0 -45 16 -64.5t52 -19.5l22 3l4 1l1 -123l-54 -7l-41 -3q-67 0 -107 43 q-20 22 -31 51.5t-11 70.5q-36 -88 -106.5 -135t-166.5 -47q-124 0 -194 84t-70 236zM252 293q0 -86 38 -133t107 -47q99 0 159 75.5t60 204.5v228q-36 -41 -168 -89l-16 -6q-110 -39 -145 -88t-35 -145zM352 1274l170 272h178l-247 -272h-101z" />
<glyph unicode="&#xe2;" horiz-adv-x="913" d="M90 291q0 148 64.5 226.5t278.5 150.5l3 1q176 59 176 138v106q0 71 -40 103.5t-130 32.5q-84 0 -127 -45t-43 -138v-20h-151q0 171 84 257q81 81 256 81q162 0 238.5 -74.5t76.5 -235.5v-673q0 -45 16 -64.5t52 -19.5l22 3l4 1l1 -123l-54 -7l-41 -3q-67 0 -107 43 q-20 22 -31 51.5t-11 70.5q-36 -88 -106.5 -135t-166.5 -47q-124 0 -194 84t-70 236zM217 1276l172 270h168l172 -270h-98l-158 166l-158 -166h-98zM252 293q0 -86 38 -133t107 -47q99 0 159 75.5t60 204.5v228q-36 -41 -168 -89l-16 -6q-110 -39 -145 -88t-35 -145z" />
<glyph unicode="&#xe3;" horiz-adv-x="913" d="M90 291q0 148 64.5 226.5t278.5 150.5l3 1q176 59 176 138v106q0 71 -40 103.5t-130 32.5q-84 0 -127 -45t-43 -138v-20h-151q0 171 84 257q81 81 256 81q162 0 238.5 -74.5t76.5 -235.5v-673q0 -45 16 -64.5t52 -19.5l22 3l4 1l1 -123l-54 -7l-41 -3q-67 0 -107 43 q-20 22 -31 51.5t-11 70.5q-36 -88 -106.5 -135t-166.5 -47q-124 0 -194 84t-70 236zM225 1296q21 95 65.5 145t110.5 50q15 0 21 -2q9 0 20 -4l107 -33l4 -1l24 -3q26 0 44 18t24 52h74q-13 -99 -56 -150t-110 -51q-18 0 -28 2l-31 8l-87 31l-12 3l-22 1q-22 0 -43 -18 q-16 -15 -29 -48h-76zM252 293q0 -86 38 -133t107 -47q99 0 159 75.5t60 204.5v228q-36 -41 -168 -89l-16 -6q-110 -39 -145 -88t-35 -145z" />
<glyph unicode="&#xe8;" horiz-adv-x="901" d="M90 563q0 322 88.5 471.5t278.5 149.5q178 0 266 -127t88 -387l-1 -62l-1 -38l-553 -1v-51q0 -218 50 -316t159 -98q84 0 134 75t50 202v8h158q0 -203 -92 -311.5t-262 -108.5q-185 0 -274 145.5t-89 448.5zM250 1546h178l170 -270h-101zM256 700h391v31q0 82 -11 139.5 t-36 99.5q-45 81 -139 81q-102 0 -153.5 -86.5t-51.5 -264.5z" />
<glyph unicode="&#xe9;" horiz-adv-x="901" d="M90 563q0 322 88.5 471.5t278.5 149.5q178 0 266 -127t88 -387l-1 -62l-1 -38l-553 -1v-51q0 -218 50 -316t159 -98q84 0 134 75t50 202v8h158q0 -203 -92 -311.5t-262 -108.5q-185 0 -274 145.5t-89 448.5zM256 700h391v31q0 82 -11 139.5t-36 99.5q-45 81 -139 81 q-102 0 -153.5 -86.5t-51.5 -264.5zM356 1274l170 272h178l-247 -272h-101z" />
<glyph unicode="&#xea;" horiz-adv-x="901" d="M90 563q0 322 88.5 471.5t278.5 149.5q178 0 266 -127t88 -387l-1 -62l-1 -38l-553 -1v-51q0 -218 50 -316t159 -98q84 0 134 75t50 202v8h158q0 -203 -92 -311.5t-262 -108.5q-185 0 -274 145.5t-89 448.5zM221 1276l172 270h168l172 -270h-98l-158 166l-158 -166h-98z M256 700h391v31q0 82 -11 139.5t-36 99.5q-45 81 -139 81q-102 0 -153.5 -86.5t-51.5 -264.5z" />
<glyph unicode="&#xec;" horiz-adv-x="408" d="M-22 1546h178l170 -270h-101zM121 0v1151h166v-1151h-166z" />
<glyph unicode="&#xed;" horiz-adv-x="408" d="M84 1274l170 272h178l-247 -272h-101zM121 0v1151h166v-1151h-166z" />
<glyph unicode="&#xf2;" horiz-adv-x="989" d="M90 575q0 309 99 459t305 150q207 0 306 -147.5t99 -461.5q0 -313 -98 -459.5t-307 -146.5q-210 0 -307 146t-97 460zM262 575q0 -259 53 -364t179 -105q123 0 177 107.5t54 361.5t-53.5 360.5t-177.5 106.5q-123 0 -177.5 -104.5t-54.5 -362.5zM275 1546h178l170 -270 h-101z" />
<glyph unicode="&#xf3;" horiz-adv-x="989" d="M90 575q0 309 99 459t305 150q207 0 306 -147.5t99 -461.5q0 -313 -98 -459.5t-307 -146.5q-210 0 -307 146t-97 460zM262 575q0 -259 53 -364t179 -105q123 0 177 107.5t54 361.5t-53.5 360.5t-177.5 106.5q-123 0 -177.5 -104.5t-54.5 -362.5zM381 1274l170 272h178 l-247 -272h-101z" />
<glyph unicode="&#xf4;" horiz-adv-x="989" d="M90 575q0 309 99 459t305 150q207 0 306 -147.5t99 -461.5q0 -313 -98 -459.5t-307 -146.5q-210 0 -307 146t-97 460zM246 1276l172 270h168l172 -270h-98l-158 166l-158 -166h-98zM262 575q0 -259 53 -364t179 -105q123 0 177 107.5t54 361.5t-53.5 360.5t-177.5 106.5 q-123 0 -177.5 -104.5t-54.5 -362.5z" />
<glyph unicode="&#xf5;" horiz-adv-x="989" d="M90 575q0 309 99 459t305 150q207 0 306 -147.5t99 -461.5q0 -313 -98 -459.5t-307 -146.5q-210 0 -307 146t-97 460zM254 1296q21 95 65.5 145t110.5 50q15 0 21 -2q9 0 20 -4l107 -33l4 -1l24 -3q26 0 44 18t24 52h74q-13 -99 -56 -150t-110 -51q-18 0 -28 2l-31 8 l-87 31l-12 3l-22 1q-22 0 -43 -18q-16 -15 -29 -48h-76zM262 575q0 -259 53 -364t179 -105q123 0 177 107.5t54 361.5t-53.5 360.5t-177.5 106.5q-123 0 -177.5 -104.5t-54.5 -362.5z" />
<glyph unicode="&#xf9;" horiz-adv-x="963" d="M119 266v885h168v-889q0 -71 35.5 -110t99.5 -39q115 0 180.5 72.5t65.5 201.5v764h163v-1151h-149v150q-33 -86 -108 -133.5t-179 -47.5q-145 0 -210.5 71t-65.5 226zM248 1546h178l170 -270h-101z" />
<glyph unicode="&#xfa;" horiz-adv-x="963" d="M119 266v885h168v-889q0 -71 35.5 -110t99.5 -39q115 0 180.5 72.5t65.5 201.5v764h163v-1151h-149v150q-33 -86 -108 -133.5t-179 -47.5q-145 0 -210.5 71t-65.5 226zM354 1274l170 272h178l-247 -272h-101z" />
<glyph unicode="&#xfd;" horiz-adv-x="909" d="M35 1151h174l246 -928l254 928h165l-354 -1202q-55 -194 -128.5 -265t-207.5 -71q-9 0 -21.5 1t-26.5 4q-28 3 -58 13v146q23 -10 50 -16q16 -3 24 -4t26 -1q70 0 112 48q20 23 41 70t42 116zM381 1274l170 272h178l-247 -272h-101z" />
<glyph unicode="&#x102;" horiz-adv-x="1126" d="M31 0l420 1540h219l426 -1540h-174l-117 444h-488l-112 -444h-174zM307 1864h94q9 -64 47 -93q20 -14 46.5 -21t66.5 -7q75 0 111.5 28.5t46.5 92.5h94q-12 -133 -73 -194.5t-179 -61.5q-119 0 -179.5 61t-74.5 195zM356 600h410l-205 807z" />
<glyph unicode="&#x103;" horiz-adv-x="913" d="M90 291q0 148 64.5 226.5t278.5 150.5l3 1q176 59 176 138v106q0 71 -40 103.5t-130 32.5q-84 0 -127 -45t-43 -138v-20h-151q0 171 84 257q81 81 256 81q162 0 238.5 -74.5t76.5 -235.5v-673q0 -45 16 -64.5t52 -19.5l22 3l4 1l1 -123l-54 -7l-41 -3q-67 0 -107 43 q-20 22 -31 51.5t-11 70.5q-36 -88 -106.5 -135t-166.5 -47q-124 0 -194 84t-70 236zM176 1538h94q9 -64 47 -93q20 -14 46.5 -21t66.5 -7q75 0 111.5 28.5t46.5 92.5h94q-12 -133 -73 -194.5t-179 -61.5q-119 0 -179.5 61t-74.5 195zM252 293q0 -86 38 -133t107 -47 q99 0 159 75.5t60 204.5v228q-36 -41 -168 -89l-16 -6q-110 -39 -145 -88t-35 -145z" />
<glyph unicode="&#x110;" horiz-adv-x="1192" d="M-6 739v140h143v661h436q260 0 385 -175t125 -544q0 -261 -42.5 -429.5t-133.5 -266.5q-61 -67 -141 -96t-231 -29h-398v739h-143zM309 147h223q108 0 167.5 21.5t93.5 71.5q54 78 78 196t24 332q0 372 -78 497.5t-291 125.5h-217v-512h179v-140h-179v-592z" />
<glyph unicode="&#x111;" horiz-adv-x="993" d="M90 612q0 269 93.5 417.5t262.5 148.5q89 0 159.5 -42t88.5 -104v248h-248v100h248v160h162v-160h160v-100h-160v-1280h-151v145q-18 -74 -88.5 -121t-161.5 -47q-177 0 -271 164t-94 471zM266 596q0 -251 51 -363t164 -112q119 0 171.5 106t52.5 357q0 254 -50 352 t-168 98q-112 0 -166.5 -107t-54.5 -331z" />
<glyph unicode="&#x128;" horiz-adv-x="451" d="M13 1708q21 95 65.5 145t110.5 50q15 0 21 -2q9 0 20 -4l107 -33l4 -1l24 -3q26 0 44 18t24 52h74q-13 -99 -56 -150t-110 -51q-18 0 -28 2l-31 8l-87 31l-12 3l-22 1q-22 0 -43 -18q-16 -15 -29 -48h-76zM137 0v1540h176v-1540h-176z" />
<glyph unicode="&#x129;" horiz-adv-x="408" d="M-37 1296q21 95 65.5 145t110.5 50q15 0 21 -2q9 0 20 -4l107 -33l4 -1l24 -3q26 0 44 18t24 52h74q-13 -99 -56 -150t-110 -51q-18 0 -28 2l-31 8l-87 31l-12 3l-22 1q-22 0 -43 -18q-16 -15 -29 -48h-76zM121 0v1151h166v-1151h-166z" />
<glyph unicode="&#x168;" horiz-adv-x="1180" d="M139 535v1005h172v-1036q0 -216 61.5 -300.5t209.5 -84.5q149 0 220.5 93.5t71.5 291.5v1036h168v-1005q0 -197 -21.5 -276.5t-74.5 -141.5q-63 -75 -156 -113.5t-210 -38.5q-122 0 -217.5 41.5t-151.5 118.5q-38 49 -56 133q-8 43 -12 108.5t-4 168.5zM344 1708 q21 95 65.5 145t110.5 50q15 0 21 -2q9 0 20 -4l107 -33l4 -1l24 -3q26 0 44 18t24 52h74q-13 -99 -56 -150t-110 -51q-18 0 -28 2l-31 8l-87 31l-12 3l-22 1q-22 0 -43 -18q-16 -15 -29 -48h-76z" />
<glyph unicode="&#x169;" horiz-adv-x="963" d="M119 266v885h168v-889q0 -71 35.5 -110t99.5 -39q115 0 180.5 72.5t65.5 201.5v764h163v-1151h-149v150q-33 -86 -108 -133.5t-179 -47.5q-145 0 -210.5 71t-65.5 226zM254 1296q21 95 65.5 145t110.5 50q15 0 21 -2q9 0 20 -4l107 -33l4 -1l24 -3q26 0 44 18t24 52h74 q-13 -99 -56 -150t-110 -51q-18 0 -28 2l-31 8l-87 31l-12 3l-22 1q-22 0 -43 -18q-16 -15 -29 -48h-76z" />
<glyph unicode="&#x1a0;" d="M106 770q0 431 116.5 619t377.5 188q231 0 349 -145q16 13 28 38q22 45 22 120v9h-80v192h165v-192q0 -105 -44 -176q-21 -33 -49 -55q103 -190 103 -598q0 -434 -114.5 -620.5t-379.5 -186.5q-259 0 -376.5 189.5t-117.5 617.5zM285 770q0 -372 70.5 -513.5 t244.5 -141.5t244.5 139t70.5 516q0 376 -69.5 514.5t-245.5 138.5q-173 0 -244 -142.5t-71 -510.5z" />
<glyph unicode="&#x1a1;" horiz-adv-x="989" d="M90 575q0 309 99 459t305 150q188 0 286 -121q7 9 13 21q22 45 22 120v9h-80v192h165v-192q0 -105 -44 -176q-14 -23 -32 -41q75 -147 75 -421q0 -313 -98 -459.5t-307 -146.5q-210 0 -307 146t-97 460zM262 575q0 -259 53 -364t179 -105q123 0 177 107.5t54 361.5 t-53.5 360.5t-177.5 106.5q-123 0 -177.5 -104.5t-54.5 -362.5z" />
<glyph unicode="&#x1af;" horiz-adv-x="1180" d="M139 535v1005h172v-1036q0 -216 61.5 -300.5t209.5 -84.5q149 0 220.5 93.5t71.5 291.5v1036h168v-102q12 12 22 32q22 45 22 120v9h-80v192h165v-192q0 -105 -44 -176q-33 -53 -85 -78v-810q0 -197 -21.5 -276.5t-74.5 -141.5q-63 -75 -156 -113.5t-210 -38.5 q-122 0 -217.5 41.5t-151.5 118.5q-38 49 -56 133q-8 43 -12 108.5t-4 168.5z" />
<glyph unicode="&#x1b0;" horiz-adv-x="963" d="M119 266v885h168v-889q0 -71 35.5 -110t99.5 -39q115 0 180.5 72.5t65.5 201.5v764h163v-97q11 12 20 30q22 45 22 120v9h-80v192h165v-192q0 -105 -44 -176q-32 -52 -83 -77v-960h-149v150q-33 -86 -108 -133.5t-179 -47.5q-145 0 -210.5 71t-65.5 226z" />
<glyph unicode="&#x1ea0;" horiz-adv-x="1126" d="M31 0l420 1540h219l426 -1540h-174l-117 444h-488l-112 -444h-174zM356 600h410l-205 807zM486 -142h156v-170h-156v170z" />
<glyph unicode="&#x1ea1;" horiz-adv-x="913" d="M90 291q0 148 64.5 226.5t278.5 150.5l3 1q176 59 176 138v106q0 71 -40 103.5t-130 32.5q-84 0 -127 -45t-43 -138v-20h-151q0 171 84 257q81 81 256 81q162 0 238.5 -74.5t76.5 -235.5v-673q0 -45 16 -64.5t52 -19.5l22 3l4 1l1 -123l-54 -7l-41 -3q-67 0 -107 43 q-20 22 -31 51.5t-11 70.5q-36 -88 -106.5 -135t-166.5 -47q-124 0 -194 84t-70 236zM252 293q0 -86 38 -133t107 -47q99 0 159 75.5t60 204.5v228q-36 -41 -168 -89l-16 -6q-110 -39 -145 -88t-35 -145zM397 -142h156v-170h-156v170z" />
<glyph unicode="&#x1ea2;" horiz-adv-x="1126" d="M31 0l420 1540h219l426 -1540h-174l-117 444h-488l-112 -444h-174zM356 600h410l-205 807zM420 1841v15q0 74 35.5 116.5t107.5 42.5q69 0 106.5 -38.5t37.5 -99.5q0 -62 -62 -135l-17 -17q-32 -41 -32 -92v-12q0 -6 2 -15h-86v10q0 3 -1 8v14q0 34 10.5 61.5t45.5 68.5 l5 7q43 51 43 103q0 38 -15.5 56.5t-35.5 18.5q-24 0 -40.5 -23t-16.5 -73v-16h-87z" />
<glyph unicode="&#x1ea3;" horiz-adv-x="913" d="M90 291q0 148 64.5 226.5t278.5 150.5l3 1q176 59 176 138v106q0 71 -40 103.5t-130 32.5q-84 0 -127 -45t-43 -138v-20h-151q0 171 84 257q81 81 256 81q162 0 238.5 -74.5t76.5 -235.5v-673q0 -45 16 -64.5t52 -19.5l22 3l4 1l1 -123l-54 -7l-41 -3q-67 0 -107 43 q-20 22 -31 51.5t-11 70.5q-36 -88 -106.5 -135t-166.5 -47q-124 0 -194 84t-70 236zM252 293q0 -86 38 -133t107 -47q99 0 159 75.5t60 204.5v228q-36 -41 -168 -89l-16 -6q-110 -39 -145 -88t-35 -145zM312 1502v15q0 74 35 116.5t108 42.5q68 0 106 -38.5t38 -99.5 q0 -62 -62 -135l-17 -17q-32 -41 -32 -92v-12q0 -6 2 -15h-86v10q0 3 -1 8v14q0 34 10.5 61.5t45.5 68.5l5 7q43 51 43 103q0 38 -15.5 56.5t-35.5 18.5q-25 0 -41 -23t-16 -73v-16h-87z" />
<glyph unicode="&#x1ea4;" horiz-adv-x="1126" d="M31 0l420 1540h219l426 -1540h-174l-117 444h-488l-112 -444h-174zM307 1688l172 270h168l172 -270h-98l-158 166l-158 -166h-98zM356 600h410l-205 807zM733 1892l170 270h178l-247 -270h-101z" />
<glyph unicode="&#x1ea5;" horiz-adv-x="913" d="M90 291q0 148 64.5 226.5t278.5 150.5l3 1q176 59 176 138v106q0 71 -40 103.5t-130 32.5q-84 0 -127 -45t-43 -138v-20h-151q0 171 84 257q81 81 256 81q162 0 238.5 -74.5t76.5 -235.5v-673q0 -45 16 -64.5t52 -19.5l22 3l4 1l1 -123l-54 -7l-41 -3q-67 0 -107 43 q-20 22 -31 51.5t-11 70.5q-36 -88 -106.5 -135t-166.5 -47q-124 0 -194 84t-70 236zM217 1276l172 270h168l172 -270h-98l-158 166l-158 -166h-98zM252 293q0 -86 38 -133t107 -47q99 0 159 75.5t60 204.5v228q-36 -41 -168 -89l-16 -6q-110 -39 -145 -88t-35 -145z M651 1466l170 270h178l-247 -270h-101z" />
<glyph unicode="&#x1ea6;" horiz-adv-x="1126" d="M31 0l420 1540h219l426 -1540h-174l-117 444h-488l-112 -444h-174zM307 1688l172 270h168l172 -270h-98l-158 166l-158 -166h-98zM356 600h410l-205 807zM520 2162h178l170 -270h-101z" />
<glyph unicode="&#x1ea7;" horiz-adv-x="913" d="M90 291q0 148 64.5 226.5t278.5 150.5l3 1q176 59 176 138v106q0 71 -40 103.5t-130 32.5q-84 0 -127 -45t-43 -138v-20h-151q0 171 84 257q81 81 256 81q162 0 238.5 -74.5t76.5 -235.5v-673q0 -45 16 -64.5t52 -19.5l22 3l4 1l1 -123l-54 -7l-41 -3q-67 0 -107 43 q-20 22 -31 51.5t-11 70.5q-36 -88 -106.5 -135t-166.5 -47q-124 0 -194 84t-70 236zM217 1276l172 270h168l172 -270h-98l-158 166l-158 -166h-98zM252 293q0 -86 38 -133t107 -47q99 0 159 75.5t60 204.5v228q-36 -41 -168 -89l-16 -6q-110 -39 -145 -88t-35 -145z M444 1736h178l170 -270h-101z" />
<glyph unicode="&#x1ea8;" horiz-adv-x="1126" d="M31 0l420 1540h219l426 -1540h-174l-117 444h-488l-112 -444h-174zM307 1688l172 270h168l172 -270h-98l-158 166l-158 -166h-98zM356 600h410l-205 807zM653 2109v15q0 74 35.5 116.5t107.5 42.5q69 0 106.5 -38.5t37.5 -99.5q0 -62 -62 -135l-17 -17q-32 -41 -32 -92 v-12q0 -6 2 -15h-86v10q0 3 -1 8v14q0 34 10.5 61.5t45.5 68.5l5 7q43 51 43 103q0 38 -15.5 56.5t-35.5 18.5q-24 0 -40.5 -23t-16.5 -73v-16h-87z" />
<glyph unicode="&#x1ea9;" horiz-adv-x="913" d="M90 291q0 148 64.5 226.5t278.5 150.5l3 1q176 59 176 138v106q0 71 -40 103.5t-130 32.5q-84 0 -127 -45t-43 -138v-20h-151q0 171 84 257q81 81 256 81q162 0 238.5 -74.5t76.5 -235.5v-673q0 -45 16 -64.5t52 -19.5l22 3l4 1l1 -123l-54 -7l-41 -3q-67 0 -107 43 q-20 22 -31 51.5t-11 70.5q-36 -88 -106.5 -135t-166.5 -47q-124 0 -194 84t-70 236zM217 1276l172 270h168l172 -270h-98l-158 166l-158 -166h-98zM252 293q0 -86 38 -133t107 -47q99 0 159 75.5t60 204.5v228q-36 -41 -168 -89l-16 -6q-110 -39 -145 -88t-35 -145z M555 1695v15q0 74 35 116.5t108 42.5q68 0 106 -38.5t38 -99.5q0 -62 -62 -135l-17 -17q-32 -41 -32 -92v-12q0 -6 2 -15h-86v10q0 3 -1 8v14q0 34 10.5 61.5t45.5 68.5l5 7q43 51 43 103q0 38 -15.5 56.5t-35.5 18.5q-25 0 -41 -23t-16 -73v-16h-87z" />
<glyph unicode="&#x1eaa;" horiz-adv-x="1126" d="M31 0l420 1540h219l426 -1540h-174l-117 444h-488l-112 -444h-174zM307 1688l172 270h168l172 -270h-98l-158 166l-158 -166h-98zM356 600h410l-205 807zM364 2009q21 95 65.5 145t110.5 50q15 0 21 -2q9 0 20 -4l107 -33l4 -1l24 -3q26 0 44 18t24 52h74 q-13 -99 -56 -150t-110 -51q-18 0 -28 2l-31 8l-87 31l-12 3l-22 1q-22 0 -43 -18q-16 -15 -29 -48h-76z" />
<glyph unicode="&#x1eab;" horiz-adv-x="913" d="M90 291q0 148 64.5 226.5t278.5 150.5l3 1q176 59 176 138v106q0 71 -40 103.5t-130 32.5q-84 0 -127 -45t-43 -138v-20h-151q0 171 84 257q81 81 256 81q162 0 238.5 -74.5t76.5 -235.5v-673q0 -45 16 -64.5t52 -19.5l22 3l4 1l1 -123l-54 -7l-41 -3q-67 0 -107 43 q-20 22 -31 51.5t-11 70.5q-36 -88 -106.5 -135t-166.5 -47q-124 0 -194 84t-70 236zM217 1276l172 270h168l172 -270h-98l-158 166l-158 -166h-98zM252 293q0 -86 38 -133t107 -47q99 0 159 75.5t60 204.5v228q-36 -41 -168 -89l-16 -6q-110 -39 -145 -88t-35 -145z M283 1577q21 95 65.5 145t110.5 50q15 0 21 -2q9 0 20 -4l107 -33l4 -1l24 -3q26 0 44 18t24 52h74q-13 -99 -56 -150t-110 -51q-18 0 -28 2l-31 8l-87 31l-12 3l-22 1q-22 0 -43 -18q-16 -15 -29 -48h-76z" />
<glyph unicode="&#x1eac;" horiz-adv-x="1126" d="M31 0l420 1540h219l426 -1540h-174l-117 444h-488l-112 -444h-174zM307 1688l172 270h168l172 -270h-98l-158 166l-158 -166h-98zM356 600h410l-205 807zM486 -142h156v-170h-156v170z" />
<glyph unicode="&#x1ead;" horiz-adv-x="913" d="M90 291q0 148 64.5 226.5t278.5 150.5l3 1q176 59 176 138v106q0 71 -40 103.5t-130 32.5q-84 0 -127 -45t-43 -138v-20h-151q0 171 84 257q81 81 256 81q162 0 238.5 -74.5t76.5 -235.5v-673q0 -45 16 -64.5t52 -19.5l22 3l4 1l1 -123l-54 -7l-41 -3q-67 0 -107 43 q-20 22 -31 51.5t-11 70.5q-36 -88 -106.5 -135t-166.5 -47q-124 0 -194 84t-70 236zM217 1276l172 270h168l172 -270h-98l-158 166l-158 -166h-98zM252 293q0 -86 38 -133t107 -47q99 0 159 75.5t60 204.5v228q-36 -41 -168 -89l-16 -6q-110 -39 -145 -88t-35 -145z M397 -142h156v-170h-156v170z" />
<glyph unicode="&#x1eae;" horiz-adv-x="1126" d="M31 0l420 1540h219l426 -1540h-174l-117 444h-488l-112 -444h-174zM307 1864h94q9 -64 47 -93q20 -14 46.5 -21t66.5 -7q75 0 111.5 28.5t46.5 92.5h94q-12 -133 -73 -194.5t-179 -61.5q-119 0 -179.5 61t-74.5 195zM356 600h410l-205 807zM482 1862l170 270h178 l-247 -270h-101z" />
<glyph unicode="&#x1eaf;" horiz-adv-x="913" d="M90 291q0 148 64.5 226.5t278.5 150.5l3 1q176 59 176 138v106q0 71 -40 103.5t-130 32.5q-84 0 -127 -45t-43 -138v-20h-151q0 171 84 257q81 81 256 81q162 0 238.5 -74.5t76.5 -235.5v-673q0 -45 16 -64.5t52 -19.5l22 3l4 1l1 -123l-54 -7l-41 -3q-67 0 -107 43 q-20 22 -31 51.5t-11 70.5q-36 -88 -106.5 -135t-166.5 -47q-124 0 -194 84t-70 236zM176 1538h94q9 -64 47 -93q20 -14 46.5 -21t66.5 -7q75 0 111.5 28.5t46.5 92.5h94q-12 -133 -73 -194.5t-179 -61.5q-119 0 -179.5 61t-74.5 195zM252 293q0 -86 38 -133t107 -47 q99 0 159 75.5t60 204.5v228q-36 -41 -168 -89l-16 -6q-110 -39 -145 -88t-35 -145zM355 1523l170 270h178l-247 -270h-101z" />
<glyph unicode="&#x1eb0;" horiz-adv-x="1126" d="M31 0l420 1540h219l426 -1540h-174l-117 444h-488l-112 -444h-174zM279 2132h178l170 -270h-101zM307 1864h94q9 -64 47 -93q20 -14 46.5 -21t66.5 -7q75 0 111.5 28.5t46.5 92.5h94q-12 -133 -73 -194.5t-179 -61.5q-119 0 -179.5 61t-74.5 195zM356 600h410l-205 807z " />
<glyph unicode="&#x1eb1;" horiz-adv-x="913" d="M90 291q0 148 64.5 226.5t278.5 150.5l3 1q176 59 176 138v106q0 71 -40 103.5t-130 32.5q-84 0 -127 -45t-43 -138v-20h-151q0 171 84 257q81 81 256 81q162 0 238.5 -74.5t76.5 -235.5v-673q0 -45 16 -64.5t52 -19.5l22 3l4 1l1 -123l-54 -7l-41 -3q-67 0 -107 43 q-20 22 -31 51.5t-11 70.5q-36 -88 -106.5 -135t-166.5 -47q-124 0 -194 84t-70 236zM162 1793h178l170 -270h-101zM176 1538h94q9 -64 47 -93q20 -14 46.5 -21t66.5 -7q75 0 111.5 28.5t46.5 92.5h94q-12 -133 -73 -194.5t-179 -61.5q-119 0 -179.5 61t-74.5 195zM252 293 q0 -86 38 -133t107 -47q99 0 159 75.5t60 204.5v228q-36 -41 -168 -89l-16 -6q-110 -39 -145 -88t-35 -145z" />
<glyph unicode="&#x1eb2;" horiz-adv-x="1126" d="M31 0l420 1540h219l426 -1540h-174l-117 444h-488l-112 -444h-174zM307 1864h94q9 -64 47 -93q20 -14 46.5 -21t66.5 -7q75 0 111.5 28.5t46.5 92.5h94q-12 -133 -73 -194.5t-179 -61.5q-119 0 -179.5 61t-74.5 195zM356 600h410l-205 807zM420 2109v15q0 74 35.5 116.5 t107.5 42.5q69 0 106.5 -38.5t37.5 -99.5q0 -62 -62 -135l-17 -17q-32 -41 -32 -92v-12q0 -6 2 -15h-86v10q0 3 -1 8v14q0 34 10.5 61.5t45.5 68.5l5 7q43 51 43 103q0 38 -15.5 56.5t-35.5 18.5q-24 0 -40.5 -23t-16.5 -73v-16h-87z" />
<glyph unicode="&#x1eb3;" horiz-adv-x="913" d="M90 291q0 148 64.5 226.5t278.5 150.5l3 1q176 59 176 138v106q0 71 -40 103.5t-130 32.5q-84 0 -127 -45t-43 -138v-20h-151q0 171 84 257q81 81 256 81q162 0 238.5 -74.5t76.5 -235.5v-673q0 -45 16 -64.5t52 -19.5l22 3l4 1l1 -123l-54 -7l-41 -3q-67 0 -107 43 q-20 22 -31 51.5t-11 70.5q-36 -88 -106.5 -135t-166.5 -47q-124 0 -194 84t-70 236zM176 1538h94q9 -64 47 -93q20 -14 46.5 -21t66.5 -7q75 0 111.5 28.5t46.5 92.5h94q-12 -133 -73 -194.5t-179 -61.5q-119 0 -179.5 61t-74.5 195zM252 293q0 -86 38 -133t107 -47 q99 0 159 75.5t60 204.5v228q-36 -41 -168 -89l-16 -6q-110 -39 -145 -88t-35 -145zM303 1744v15q0 74 35 116.5t108 42.5q68 0 106 -38.5t38 -99.5q0 -62 -62 -135l-17 -17q-32 -41 -32 -92v-12q0 -6 2 -15h-86v10q0 3 -1 8v14q0 34 10.5 61.5t45.5 68.5l5 7q43 51 43 103 q0 38 -15.5 56.5t-35.5 18.5q-25 0 -41 -23t-16 -73v-16h-87z" />
<glyph unicode="&#x1eb4;" horiz-adv-x="1126" d="M31 0l420 1540h219l426 -1540h-174l-117 444h-488l-112 -444h-174zM307 1864h94q9 -64 47 -93q20 -14 46.5 -21t66.5 -7q75 0 111.5 28.5t46.5 92.5h94q-12 -133 -73 -194.5t-179 -61.5q-119 0 -179.5 61t-74.5 195zM354 1901q21 95 65.5 145t110.5 50q15 0 21 -2 q9 0 20 -4l107 -33l4 -1l24 -3q26 0 44 18t24 52h74q-13 -99 -56 -150t-110 -51q-18 0 -28 2l-31 8l-87 31l-12 3l-22 1q-22 0 -43 -18q-16 -15 -29 -48h-76zM356 600h410l-205 807z" />
<glyph unicode="&#x1eb5;" horiz-adv-x="913" d="M90 291q0 148 64.5 226.5t278.5 150.5l3 1q176 59 176 138v106q0 71 -40 103.5t-130 32.5q-84 0 -127 -45t-43 -138v-20h-151q0 171 84 257q81 81 256 81q162 0 238.5 -74.5t76.5 -235.5v-673q0 -45 16 -64.5t52 -19.5l22 3l4 1l1 -123l-54 -7l-41 -3q-67 0 -107 43 q-20 22 -31 51.5t-11 70.5q-36 -88 -106.5 -135t-166.5 -47q-124 0 -194 84t-70 236zM176 1538h94q9 -64 47 -93q20 -14 46.5 -21t66.5 -7q75 0 111.5 28.5t46.5 92.5h94q-12 -133 -73 -194.5t-179 -61.5q-119 0 -179.5 61t-74.5 195zM234 1577q21 95 65.5 145t110.5 50 q15 0 21 -2q9 0 20 -4l107 -33l4 -1l24 -3q26 0 44 18t24 52h74q-13 -99 -56 -150t-110 -51q-18 0 -28 2l-31 8l-87 31l-12 3l-22 1q-22 0 -43 -18q-16 -15 -29 -48h-76zM252 293q0 -86 38 -133t107 -47q99 0 159 75.5t60 204.5v228q-36 -41 -168 -89l-16 -6 q-110 -39 -145 -88t-35 -145z" />
<glyph unicode="&#x1eb6;" horiz-adv-x="1126" d="M31 0l420 1540h219l426 -1540h-174l-117 444h-488l-112 -444h-174zM307 1864h94q9 -64 47 -93q20 -14 46.5 -21t66.5 -7q75 0 111.5 28.5t46.5 92.5h94q-12 -133 -73 -194.5t-179 -61.5q-119 0 -179.5 61t-74.5 195zM356 600h410l-205 807zM486 -142h156v-170h-156v170z " />
<glyph unicode="&#x1eb7;" horiz-adv-x="913" d="M90 291q0 148 64.5 226.5t278.5 150.5l3 1q176 59 176 138v106q0 71 -40 103.5t-130 32.5q-84 0 -127 -45t-43 -138v-20h-151q0 171 84 257q81 81 256 81q162 0 238.5 -74.5t76.5 -235.5v-673q0 -45 16 -64.5t52 -19.5l22 3l4 1l1 -123l-54 -7l-41 -3q-67 0 -107 43 q-20 22 -31 51.5t-11 70.5q-36 -88 -106.5 -135t-166.5 -47q-124 0 -194 84t-70 236zM176 1538h94q9 -64 47 -93q20 -14 46.5 -21t66.5 -7q75 0 111.5 28.5t46.5 92.5h94q-12 -133 -73 -194.5t-179 -61.5q-119 0 -179.5 61t-74.5 195zM252 293q0 -86 38 -133t107 -47 q99 0 159 75.5t60 204.5v228q-36 -41 -168 -89l-16 -6q-110 -39 -145 -88t-35 -145zM397 -142h156v-170h-156v170z" />
<glyph unicode="&#x1eb8;" horiz-adv-x="1004" d="M137 0v1540h764v-160h-594v-495h555v-156h-555v-567h600v-162h-770zM486 -142h156v-170h-156v170z" />
<glyph unicode="&#x1eb9;" horiz-adv-x="901" d="M90 563q0 322 88.5 471.5t278.5 149.5q178 0 266 -127t88 -387l-1 -62l-1 -38l-553 -1v-51q0 -218 50 -316t159 -98q84 0 134 75t50 202v8h158q0 -203 -92 -311.5t-262 -108.5q-185 0 -274 145.5t-89 448.5zM256 700h391v31q0 82 -11 139.5t-36 99.5q-45 81 -139 81 q-102 0 -153.5 -86.5t-51.5 -264.5zM373 -142h156v-170h-156v170z" />
<glyph unicode="&#x1eba;" horiz-adv-x="1004" d="M137 0v1540h764v-160h-594v-495h555v-156h-555v-567h600v-162h-770zM420 1841v15q0 74 35.5 116.5t107.5 42.5q69 0 106.5 -38.5t37.5 -99.5q0 -62 -62 -135l-17 -17q-32 -41 -32 -92v-12q0 -6 2 -15h-86v10q0 3 -1 8v14q0 34 10.5 61.5t45.5 68.5l5 7q43 51 43 103 q0 38 -15.5 56.5t-35.5 18.5q-24 0 -40.5 -23t-16.5 -73v-16h-87z" />
<glyph unicode="&#x1ebb;" horiz-adv-x="901" d="M90 563q0 322 88.5 471.5t278.5 149.5q178 0 266 -127t88 -387l-1 -62l-1 -38l-553 -1v-51q0 -218 50 -316t159 -98q84 0 134 75t50 202v8h158q0 -203 -92 -311.5t-262 -108.5q-185 0 -274 145.5t-89 448.5zM256 700h391v31q0 82 -11 139.5t-36 99.5q-45 81 -139 81 q-102 0 -153.5 -86.5t-51.5 -264.5zM312 1502v15q0 74 35 116.5t108 42.5q68 0 106 -38.5t38 -99.5q0 -62 -62 -135l-17 -17q-32 -41 -32 -92v-12q0 -6 2 -15h-86v10q0 3 -1 8v14q0 34 10.5 61.5t45.5 68.5l5 7q43 51 43 103q0 38 -15.5 56.5t-35.5 18.5q-25 0 -41 -23 t-16 -73v-16h-87z" />
<glyph unicode="&#x1ebc;" horiz-adv-x="1004" d="M137 0v1540h764v-160h-594v-495h555v-156h-555v-567h600v-162h-770zM315 1708q21 95 65.5 145t110.5 50q15 0 21 -2q9 0 20 -4l107 -33l4 -1l24 -3q26 0 44 18t24 52h74q-13 -99 -56 -150t-110 -51q-18 0 -28 2l-31 8l-87 31l-12 3l-22 1q-22 0 -43 -18q-16 -15 -29 -48 h-76z" />
<glyph unicode="&#x1ebd;" horiz-adv-x="901" d="M90 563q0 322 88.5 471.5t278.5 149.5q178 0 266 -127t88 -387l-1 -62l-1 -38l-553 -1v-51q0 -218 50 -316t159 -98q84 0 134 75t50 202v8h158q0 -203 -92 -311.5t-262 -108.5q-185 0 -274 145.5t-89 448.5zM225 1296q21 95 65.5 145t110.5 50q15 0 21 -2q9 0 20 -4 l107 -33l4 -1l24 -3q26 0 44 18t24 52h74q-13 -99 -56 -150t-110 -51q-18 0 -28 2l-31 8l-87 31l-12 3l-22 1q-22 0 -43 -18q-16 -15 -29 -48h-76zM256 700h391v31q0 82 -11 139.5t-36 99.5q-45 81 -139 81q-102 0 -153.5 -86.5t-51.5 -264.5z" />
<glyph unicode="&#x1ebe;" horiz-adv-x="1004" d="M137 0v1540h764v-160h-594v-495h555v-156h-555v-567h600v-162h-770zM279 1688l172 270h168l172 -270h-98l-158 166l-158 -166h-98zM704 1892l170 270h178l-247 -270h-101z" />
<glyph unicode="&#x1ebf;" horiz-adv-x="901" d="M90 563q0 322 88.5 471.5t278.5 149.5q178 0 266 -127t88 -387l-1 -62l-1 -38l-553 -1v-51q0 -218 50 -316t159 -98q84 0 134 75t50 202v8h158q0 -203 -92 -311.5t-262 -108.5q-185 0 -274 145.5t-89 448.5zM221 1276l172 270h168l172 -270h-98l-158 166l-158 -166h-98z M256 700h391v31q0 82 -11 139.5t-36 99.5q-45 81 -139 81q-102 0 -153.5 -86.5t-51.5 -264.5zM651 1466l170 270h178l-247 -270h-101z" />
<glyph unicode="&#x1ec0;" horiz-adv-x="1004" d="M137 0v1540h764v-160h-594v-495h555v-156h-555v-567h600v-162h-770zM279 1688l172 270h168l172 -270h-98l-158 166l-158 -166h-98zM510 2162h178l170 -270h-101z" />
<glyph unicode="&#x1ec1;" horiz-adv-x="901" d="M90 563q0 322 88.5 471.5t278.5 149.5q178 0 266 -127t88 -387l-1 -62l-1 -38l-553 -1v-51q0 -218 50 -316t159 -98q84 0 134 75t50 202v8h158q0 -203 -92 -311.5t-262 -108.5q-185 0 -274 145.5t-89 448.5zM221 1276l172 270h168l172 -270h-98l-158 166l-158 -166h-98z M256 700h391v31q0 82 -11 139.5t-36 99.5q-45 81 -139 81q-102 0 -153.5 -86.5t-51.5 -264.5zM444 1736h178l170 -270h-101z" />
<glyph unicode="&#x1ec2;" horiz-adv-x="1004" d="M137 0v1540h764v-160h-594v-495h555v-156h-555v-567h600v-162h-770zM279 1688l172 270h168l172 -270h-98l-158 166l-158 -166h-98zM634 2109v15q0 74 35.5 116.5t107.5 42.5q69 0 106.5 -38.5t37.5 -99.5q0 -62 -62 -135l-17 -17q-32 -41 -32 -92v-12q0 -6 2 -15h-86v10 q0 3 -1 8v14q0 34 10.5 61.5t45.5 68.5l5 7q43 51 43 103q0 38 -15.5 56.5t-35.5 18.5q-24 0 -40.5 -23t-16.5 -73v-16h-87z" />
<glyph unicode="&#x1ec3;" horiz-adv-x="901" d="M90 563q0 322 88.5 471.5t278.5 149.5q178 0 266 -127t88 -387l-1 -62l-1 -38l-553 -1v-51q0 -218 50 -316t159 -98q84 0 134 75t50 202v8h158q0 -203 -92 -311.5t-262 -108.5q-185 0 -274 145.5t-89 448.5zM221 1276l172 270h168l172 -270h-98l-158 166l-158 -166h-98z M256 700h391v31q0 82 -11 139.5t-36 99.5q-45 81 -139 81q-102 0 -153.5 -86.5t-51.5 -264.5zM555 1695v15q0 74 35 116.5t108 42.5q68 0 106 -38.5t38 -99.5q0 -62 -62 -135l-17 -17q-32 -41 -32 -92v-12q0 -6 2 -15h-86v10q0 3 -1 8v14q0 34 10.5 61.5t45.5 68.5l5 7 q43 51 43 103q0 38 -15.5 56.5t-35.5 18.5q-25 0 -41 -23t-16 -73v-16h-87z" />
<glyph unicode="&#x1ec4;" horiz-adv-x="1004" d="M137 0v1540h764v-160h-594v-495h555v-156h-555v-567h600v-162h-770zM279 1688l172 270h168l172 -270h-98l-158 166l-158 -166h-98zM325 1980q21 95 65.5 145t110.5 50q15 0 21 -2q9 0 20 -4l107 -33l4 -1l24 -3q26 0 44 18t24 52h74q-13 -99 -56 -150t-110 -51 q-18 0 -28 2l-31 8l-87 31l-12 3l-22 1q-22 0 -43 -18q-16 -15 -29 -48h-76z" />
<glyph unicode="&#x1ec5;" horiz-adv-x="901" d="M90 563q0 322 88.5 471.5t278.5 149.5q178 0 266 -127t88 -387l-1 -62l-1 -38l-553 -1v-51q0 -218 50 -316t159 -98q84 0 134 75t50 202v8h158q0 -203 -92 -311.5t-262 -108.5q-185 0 -274 145.5t-89 448.5zM221 1276l172 270h168l172 -270h-98l-158 166l-158 -166h-98z M256 700h391v31q0 82 -11 139.5t-36 99.5q-45 81 -139 81q-102 0 -153.5 -86.5t-51.5 -264.5zM283 1577q21 95 65.5 145t110.5 50q15 0 21 -2q9 0 20 -4l107 -33l4 -1l24 -3q26 0 44 18t24 52h74q-13 -99 -56 -150t-110 -51q-18 0 -28 2l-31 8l-87 31l-12 3l-22 1 q-22 0 -43 -18q-16 -15 -29 -48h-76z" />
<glyph unicode="&#x1ec6;" horiz-adv-x="1004" d="M137 0v1540h764v-160h-594v-495h555v-156h-555v-567h600v-162h-770zM279 1688l172 270h168l172 -270h-98l-158 166l-158 -166h-98zM486 -142h156v-170h-156v170z" />
<glyph unicode="&#x1ec7;" horiz-adv-x="901" d="M90 563q0 322 88.5 471.5t278.5 149.5q178 0 266 -127t88 -387l-1 -62l-1 -38l-553 -1v-51q0 -218 50 -316t159 -98q84 0 134 75t50 202v8h158q0 -203 -92 -311.5t-262 -108.5q-185 0 -274 145.5t-89 448.5zM221 1276l172 270h168l172 -270h-98l-158 166l-158 -166h-98z M256 700h391v31q0 82 -11 139.5t-36 99.5q-45 81 -139 81q-102 0 -153.5 -86.5t-51.5 -264.5zM373 -142h156v-170h-156v170z" />
<glyph unicode="&#x1ec8;" horiz-adv-x="451" d="M78 1870v15q0 74 35.5 116.5t107.5 42.5q69 0 106.5 -38.5t37.5 -99.5q0 -62 -62 -135l-17 -17q-32 -41 -32 -92v-12q0 -6 2 -15h-86v10q0 3 -1 8v14q0 34 10.5 61.5t45.5 68.5l5 7q43 51 43 103q0 38 -15.5 56.5t-35.5 18.5q-24 0 -40.5 -23t-16.5 -73v-16h-87zM137 0 v1540h176v-1540h-176z" />
<glyph unicode="&#x1ec9;" horiz-adv-x="408" d="M60 1502v15q0 74 35.5 116.5t107.5 42.5q69 0 106.5 -38.5t37.5 -99.5q0 -62 -62 -135l-17 -17q-32 -41 -32 -92v-12q0 -6 2 -15h-86v10q0 3 -1 8v14q0 34 10.5 61.5t45.5 68.5l5 7q43 51 43 103q0 38 -15.5 56.5t-35.5 18.5q-24 0 -40.5 -23t-16.5 -73v-16h-87zM121 0 v1151h166v-1151h-166z" />
<glyph unicode="&#x1eca;" horiz-adv-x="451" d="M137 0v1540h176v-1540h-176zM145 -142h156v-170h-156v170z" />
<glyph unicode="&#x1ecb;" horiz-adv-x="408" d="M121 -142h156v-170h-156v170zM122 0v1151h166v-1151h-166zM122 1331v209h166v-209h-166z" />
<glyph unicode="&#x1ecc;" d="M106 770q0 431 116.5 619t377.5 188q263 0 378.5 -187t115.5 -620q0 -434 -114.5 -620.5t-379.5 -186.5q-259 0 -376.5 189.5t-117.5 617.5zM285 770q0 -372 70.5 -513.5t244.5 -141.5t244.5 139t70.5 516q0 376 -69.5 514.5t-245.5 138.5q-173 0 -244 -142.5t-71 -510.5 zM522 -142h156v-170h-156v170z" />
<glyph unicode="&#x1ecd;" horiz-adv-x="989" d="M90 575q0 309 99 459t305 150q207 0 306 -147.5t99 -461.5q0 -313 -98 -459.5t-307 -146.5q-210 0 -307 146t-97 460zM262 575q0 -259 53 -364t179 -105q123 0 177 107.5t54 361.5t-53.5 360.5t-177.5 106.5q-123 0 -177.5 -104.5t-54.5 -362.5zM417 -142h156v-170h-156 v170z" />
<glyph unicode="&#x1ece;" d="M106 770q0 431 116.5 619t377.5 188q263 0 378.5 -187t115.5 -620q0 -434 -114.5 -620.5t-379.5 -186.5q-259 0 -376.5 189.5t-117.5 617.5zM285 770q0 -372 70.5 -513.5t244.5 -141.5t244.5 139t70.5 516q0 376 -69.5 514.5t-245.5 138.5q-173 0 -244 -142.5t-71 -510.5 zM456 1870v15q0 74 35.5 116.5t107.5 42.5q69 0 107 -38.5t38 -99.5q0 -62 -63 -135l-16 -17q-33 -41 -33 -92v-12q0 -6 2 -15h-86v10v8v14q0 34 10 61.5t45 68.5l5 7q43 51 43 103q0 38 -15 56.5t-36 18.5q-24 0 -40.5 -23t-16.5 -73v-16h-87z" />
<glyph unicode="&#x1ecf;" horiz-adv-x="989" d="M90 575q0 309 99 459t305 150q207 0 306 -147.5t99 -461.5q0 -313 -98 -459.5t-307 -146.5q-210 0 -307 146t-97 460zM262 575q0 -259 53 -364t179 -105q123 0 177 107.5t54 361.5t-53.5 360.5t-177.5 106.5q-123 0 -177.5 -104.5t-54.5 -362.5zM351 1502v15 q0 74 35 116.5t108 42.5q68 0 106 -38.5t38 -99.5q0 -62 -62 -135l-17 -17q-32 -41 -32 -92v-12q0 -6 2 -15h-86v10q0 3 -1 8v14q0 34 10.5 61.5t45.5 68.5l5 7q43 51 43 103q0 38 -15.5 56.5t-35.5 18.5q-25 0 -41 -23t-16 -73v-16h-87z" />
<glyph unicode="&#x1ed0;" d="M106 770q0 431 116.5 619t377.5 188q263 0 378.5 -187t115.5 -620q0 -434 -114.5 -620.5t-379.5 -186.5q-259 0 -376.5 189.5t-117.5 617.5zM285 770q0 -372 70.5 -513.5t244.5 -141.5t244.5 139t70.5 516q0 376 -69.5 514.5t-245.5 138.5q-173 0 -244 -142.5t-71 -510.5 zM344 1688l172 270h168l172 -270h-98l-158 166l-158 -166h-98zM772 1892l170 270h178l-247 -270h-101z" />
<glyph unicode="&#x1ed1;" horiz-adv-x="989" d="M90 575q0 309 99 459t305 150q207 0 306 -147.5t99 -461.5q0 -313 -98 -459.5t-307 -146.5q-210 0 -307 146t-97 460zM246 1276l172 270h168l172 -270h-98l-158 166l-158 -166h-98zM262 575q0 -259 53 -364t179 -105q123 0 177 107.5t54 361.5t-53.5 360.5t-177.5 106.5 q-123 0 -177.5 -104.5t-54.5 -362.5zM680 1466l170 270h178l-247 -270h-101z" />
<glyph unicode="&#x1ed2;" d="M106 770q0 431 116.5 619t377.5 188q263 0 378.5 -187t115.5 -620q0 -434 -114.5 -620.5t-379.5 -186.5q-259 0 -376.5 189.5t-117.5 617.5zM285 770q0 -372 70.5 -513.5t244.5 -141.5t244.5 139t70.5 516q0 376 -69.5 514.5t-245.5 138.5q-173 0 -244 -142.5t-71 -510.5 zM344 1688l172 270h168l172 -270h-98l-158 166l-158 -166h-98zM568 2162h178l170 -270h-101z" />
<glyph unicode="&#x1ed3;" horiz-adv-x="989" d="M90 575q0 309 99 459t305 150q207 0 306 -147.5t99 -461.5q0 -313 -98 -459.5t-307 -146.5q-210 0 -307 146t-97 460zM246 1276l172 270h168l172 -270h-98l-158 166l-158 -166h-98zM262 575q0 -259 53 -364t179 -105q123 0 177 107.5t54 361.5t-53.5 360.5t-177.5 106.5 q-123 0 -177.5 -104.5t-54.5 -362.5zM464 1736h178l170 -270h-101z" />
<glyph unicode="&#x1ed4;" d="M106 770q0 431 116.5 619t377.5 188q263 0 378.5 -187t115.5 -620q0 -434 -114.5 -620.5t-379.5 -186.5q-259 0 -376.5 189.5t-117.5 617.5zM285 770q0 -372 70.5 -513.5t244.5 -141.5t244.5 139t70.5 516q0 376 -69.5 514.5t-245.5 138.5q-173 0 -244 -142.5t-71 -510.5 zM344 1688l172 270h168l172 -270h-98l-158 166l-158 -166h-98zM682 2109v15q0 74 35.5 116.5t107.5 42.5q69 0 106.5 -38.5t37.5 -99.5q0 -62 -62 -135l-17 -17q-32 -41 -32 -92v-12q0 -6 2 -15h-86v10q0 3 -1 8v14q0 34 10.5 61.5t45.5 68.5l5 7q43 51 43 103 q0 38 -15.5 56.5t-35.5 18.5q-24 0 -40.5 -23t-16.5 -73v-16h-87z" />
<glyph unicode="&#x1ed5;" horiz-adv-x="989" d="M90 575q0 309 99 459t305 150q207 0 306 -147.5t99 -461.5q0 -313 -98 -459.5t-307 -146.5q-210 0 -307 146t-97 460zM246 1276l172 270h168l172 -270h-98l-158 166l-158 -166h-98zM262 575q0 -259 53 -364t179 -105q123 0 177 107.5t54 361.5t-53.5 360.5t-177.5 106.5 q-123 0 -177.5 -104.5t-54.5 -362.5zM594 1695v15q0 74 35 116.5t108 42.5q68 0 106 -38.5t38 -99.5q0 -62 -62 -135l-17 -17q-32 -41 -32 -92v-12q0 -6 2 -15h-86v10q0 3 -1 8v14q0 34 10.5 61.5t45.5 68.5l5 7q43 51 43 103q0 38 -15.5 56.5t-35.5 18.5q-25 0 -41 -23 t-16 -73v-16h-87z" />
<glyph unicode="&#x1ed6;" d="M106 770q0 431 116.5 619t377.5 188q263 0 378.5 -187t115.5 -620q0 -434 -114.5 -620.5t-379.5 -186.5q-259 0 -376.5 189.5t-117.5 617.5zM285 770q0 -372 70.5 -513.5t244.5 -141.5t244.5 139t70.5 516q0 376 -69.5 514.5t-245.5 138.5q-173 0 -244 -142.5t-71 -510.5 zM344 1688l172 270h168l172 -270h-98l-158 166l-158 -166h-98zM383 1980q21 95 65.5 145t110.5 50q15 0 21 -2q9 0 20 -4l107 -33l4 -1l24 -3q26 0 44 18t24 52h74q-13 -99 -56 -150t-110 -51q-18 0 -28 2l-31 8l-87 31l-12 3l-22 1q-22 0 -43 -18q-16 -15 -29 -48h-76z" />
<glyph unicode="&#x1ed7;" horiz-adv-x="989" d="M90 575q0 309 99 459t305 150q207 0 306 -147.5t99 -461.5q0 -313 -98 -459.5t-307 -146.5q-210 0 -307 146t-97 460zM246 1276l172 270h168l172 -270h-98l-158 166l-158 -166h-98zM262 575q0 -259 53 -364t179 -105q123 0 177 107.5t54 361.5t-53.5 360.5t-177.5 106.5 q-123 0 -177.5 -104.5t-54.5 -362.5zM283 1577q21 95 65.5 145t110.5 50q15 0 21 -2q9 0 20 -4l107 -33l4 -1l24 -3q26 0 44 18t24 52h74q-13 -99 -56 -150t-110 -51q-18 0 -28 2l-31 8l-87 31l-12 3l-22 1q-22 0 -43 -18q-16 -15 -29 -48h-76z" />
<glyph unicode="&#x1ed8;" d="M106 770q0 431 116.5 619t377.5 188q263 0 378.5 -187t115.5 -620q0 -434 -114.5 -620.5t-379.5 -186.5q-259 0 -376.5 189.5t-117.5 617.5zM285 770q0 -372 70.5 -513.5t244.5 -141.5t244.5 139t70.5 516q0 376 -69.5 514.5t-245.5 138.5q-173 0 -244 -142.5t-71 -510.5 zM344 1688l172 270h168l172 -270h-98l-158 166l-158 -166h-98zM522 -142h156v-170h-156v170z" />
<glyph unicode="&#x1ed9;" horiz-adv-x="989" d="M90 575q0 309 99 459t305 150q207 0 306 -147.5t99 -461.5q0 -313 -98 -459.5t-307 -146.5q-210 0 -307 146t-97 460zM246 1276l172 270h168l172 -270h-98l-158 166l-158 -166h-98zM262 575q0 -259 53 -364t179 -105q123 0 177 107.5t54 361.5t-53.5 360.5t-177.5 106.5 q-123 0 -177.5 -104.5t-54.5 -362.5zM417 -142h156v-170h-156v170z" />
<glyph unicode="&#x1eda;" d="M106 770q0 431 116.5 619t377.5 188q231 0 349 -145q16 13 28 38q22 45 22 120v9h-80v192h165v-192q0 -105 -44 -176q-21 -33 -49 -55q103 -190 103 -598q0 -434 -114.5 -620.5t-379.5 -186.5q-259 0 -376.5 189.5t-117.5 617.5zM285 770q0 -372 70.5 -513.5 t244.5 -141.5t244.5 139t70.5 516q0 376 -69.5 514.5t-245.5 138.5q-173 0 -244 -142.5t-71 -510.5zM479 1686l170 272h178l-247 -272h-101z" />
<glyph unicode="&#x1edb;" horiz-adv-x="989" d="M90 575q0 309 99 459t305 150q188 0 286 -121q7 9 13 21q22 45 22 120v9h-80v192h165v-192q0 -105 -44 -176q-14 -23 -32 -41q75 -147 75 -421q0 -313 -98 -459.5t-307 -146.5q-210 0 -307 146t-97 460zM262 575q0 -259 53 -364t179 -105q123 0 177 107.5t54 361.5 t-53.5 360.5t-177.5 106.5q-123 0 -177.5 -104.5t-54.5 -362.5zM381 1274l170 272h178l-247 -272h-101z" />
<glyph unicode="&#x1edc;" d="M106 770q0 431 116.5 619t377.5 188q231 0 349 -145q16 13 28 38q22 45 22 120v9h-80v192h165v-192q0 -105 -44 -176q-21 -33 -49 -55q103 -190 103 -598q0 -434 -114.5 -620.5t-379.5 -186.5q-259 0 -376.5 189.5t-117.5 617.5zM285 770q0 -372 70.5 -513.5 t244.5 -141.5t244.5 139t70.5 516q0 376 -69.5 514.5t-245.5 138.5q-173 0 -244 -142.5t-71 -510.5zM373 1958h178l170 -270h-101z" />
<glyph unicode="&#x1edd;" horiz-adv-x="989" d="M90 575q0 309 99 459t305 150q188 0 286 -121q7 9 13 21q22 45 22 120v9h-80v192h165v-192q0 -105 -44 -176q-14 -23 -32 -41q75 -147 75 -421q0 -313 -98 -459.5t-307 -146.5q-210 0 -307 146t-97 460zM262 575q0 -259 53 -364t179 -105q123 0 177 107.5t54 361.5 t-53.5 360.5t-177.5 106.5q-123 0 -177.5 -104.5t-54.5 -362.5zM275 1546h178l170 -270h-101z" />
<glyph unicode="&#x1ede;" d="M106 770q0 431 116.5 619t377.5 188q231 0 349 -145q16 13 28 38q22 45 22 120v9h-80v192h165v-192q0 -105 -44 -176q-21 -33 -49 -55q103 -190 103 -598q0 -434 -114.5 -620.5t-379.5 -186.5q-259 0 -376.5 189.5t-117.5 617.5zM285 770q0 -372 70.5 -513.5 t244.5 -141.5t244.5 139t70.5 516q0 376 -69.5 514.5t-245.5 138.5q-173 0 -244 -142.5t-71 -510.5zM456 1870v15q0 74 35.5 116.5t107.5 42.5q69 0 107 -38.5t38 -99.5q0 -62 -63 -135l-16 -17q-33 -41 -33 -92v-12q0 -6 2 -15h-86v10v8v14q0 34 10 61.5t45 68.5l5 7 q43 51 43 103q0 38 -15 56.5t-36 18.5q-24 0 -40.5 -23t-16.5 -73v-16h-87z" />
<glyph unicode="&#x1edf;" horiz-adv-x="989" d="M90 575q0 309 99 459t305 150q188 0 286 -121q7 9 13 21q22 45 22 120v9h-80v192h165v-192q0 -105 -44 -176q-14 -23 -32 -41q75 -147 75 -421q0 -313 -98 -459.5t-307 -146.5q-210 0 -307 146t-97 460zM262 575q0 -259 53 -364t179 -105q123 0 177 107.5t54 361.5 t-53.5 360.5t-177.5 106.5q-123 0 -177.5 -104.5t-54.5 -362.5zM351 1502v15q0 74 35 116.5t108 42.5q68 0 106 -38.5t38 -99.5q0 -62 -62 -135l-17 -17q-32 -41 -32 -92v-12q0 -6 2 -15h-86v10q0 3 -1 8v14q0 34 10.5 61.5t45.5 68.5l5 7q43 51 43 103q0 38 -15.5 56.5 t-35.5 18.5q-25 0 -41 -23t-16 -73v-16h-87z" />
<glyph unicode="&#x1ee0;" d="M106 770q0 431 116.5 619t377.5 188q231 0 349 -145q16 13 28 38q22 45 22 120v9h-80v192h165v-192q0 -105 -44 -176q-21 -33 -49 -55q103 -190 103 -598q0 -434 -114.5 -620.5t-379.5 -186.5q-259 0 -376.5 189.5t-117.5 617.5zM285 770q0 -372 70.5 -513.5 t244.5 -141.5t244.5 139t70.5 516q0 376 -69.5 514.5t-245.5 138.5q-173 0 -244 -142.5t-71 -510.5zM352 1708q21 95 65.5 145t110.5 50q15 0 21 -2q9 0 20 -4l107 -33l4 -1l24 -3q26 0 44 18t24 52h74q-13 -99 -56 -150t-110 -51q-18 0 -28 2l-31 8l-87 31l-12 3l-22 1 q-22 0 -43 -18q-16 -15 -29 -48h-76z" />
<glyph unicode="&#x1ee1;" horiz-adv-x="989" d="M90 575q0 309 99 459t305 150q188 0 286 -121q7 9 13 21q22 45 22 120v9h-80v192h165v-192q0 -105 -44 -176q-14 -23 -32 -41q75 -147 75 -421q0 -313 -98 -459.5t-307 -146.5q-210 0 -307 146t-97 460zM254 1296q21 95 65.5 145t110.5 50q15 0 21 -2q9 0 20 -4l107 -33 l4 -1l24 -3q26 0 44 18t24 52h74q-13 -99 -56 -150t-110 -51q-18 0 -28 2l-31 8l-87 31l-12 3l-22 1q-22 0 -43 -18q-16 -15 -29 -48h-76zM262 575q0 -259 53 -364t179 -105q123 0 177 107.5t54 361.5t-53.5 360.5t-177.5 106.5q-123 0 -177.5 -104.5t-54.5 -362.5z" />
<glyph unicode="&#x1ee2;" d="M106 770q0 431 116.5 619t377.5 188q231 0 349 -145q16 13 28 38q22 45 22 120v9h-80v192h165v-192q0 -105 -44 -176q-21 -33 -49 -55q103 -190 103 -598q0 -434 -114.5 -620.5t-379.5 -186.5q-259 0 -376.5 189.5t-117.5 617.5zM285 770q0 -372 70.5 -513.5 t244.5 -141.5t244.5 139t70.5 516q0 376 -69.5 514.5t-245.5 138.5q-173 0 -244 -142.5t-71 -510.5zM522 -142h156v-170h-156v170z" />
<glyph unicode="&#x1ee3;" horiz-adv-x="989" d="M90 575q0 309 99 459t305 150q188 0 286 -121q7 9 13 21q22 45 22 120v9h-80v192h165v-192q0 -105 -44 -176q-14 -23 -32 -41q75 -147 75 -421q0 -313 -98 -459.5t-307 -146.5q-210 0 -307 146t-97 460zM262 575q0 -259 53 -364t179 -105q123 0 177 107.5t54 361.5 t-53.5 360.5t-177.5 106.5q-123 0 -177.5 -104.5t-54.5 -362.5zM417 -142h156v-170h-156v170z" />
<glyph unicode="&#x1ee4;" horiz-adv-x="1180" d="M139 535v1005h172v-1036q0 -216 61.5 -300.5t209.5 -84.5q149 0 220.5 93.5t71.5 291.5v1036h168v-1005q0 -197 -21.5 -276.5t-74.5 -141.5q-63 -75 -156 -113.5t-210 -38.5q-122 0 -217.5 41.5t-151.5 118.5q-38 49 -56 133q-8 43 -12 108.5t-4 168.5zM513 -142h156 v-170h-156v170z" />
<glyph unicode="&#x1ee5;" horiz-adv-x="963" d="M119 266v885h168v-889q0 -71 35.5 -110t99.5 -39q115 0 180.5 72.5t65.5 201.5v764h163v-1151h-149v150q-33 -86 -108 -133.5t-179 -47.5q-145 0 -210.5 71t-65.5 226zM417 -142h156v-170h-156v170z" />
<glyph unicode="&#x1ee6;" horiz-adv-x="1180" d="M139 535v1005h172v-1036q0 -216 61.5 -300.5t209.5 -84.5q149 0 220.5 93.5t71.5 291.5v1036h168v-1005q0 -197 -21.5 -276.5t-74.5 -141.5q-63 -75 -156 -113.5t-210 -38.5q-122 0 -217.5 41.5t-151.5 118.5q-38 49 -56 133q-8 43 -12 108.5t-4 168.5zM447 1870v15 q0 74 35 116.5t108 42.5q68 0 106 -38.5t38 -99.5q0 -62 -62 -135l-17 -17q-32 -41 -32 -92v-12q0 -6 2 -15h-86v10q0 3 -1 8v14q0 34 10.5 61.5t45.5 68.5l5 7q43 51 43 103q0 38 -15.5 56.5t-35.5 18.5q-25 0 -41 -23t-16 -73v-16h-87z" />
<glyph unicode="&#x1ee7;" horiz-adv-x="963" d="M119 266v885h168v-889q0 -71 35.5 -110t99.5 -39q115 0 180.5 72.5t65.5 201.5v764h163v-1151h-149v150q-33 -86 -108 -133.5t-179 -47.5q-145 0 -210.5 71t-65.5 226zM351 1502v15q0 74 35 116.5t108 42.5q68 0 106 -38.5t38 -99.5q0 -62 -62 -135l-17 -17 q-32 -41 -32 -92v-12q0 -6 2 -15h-86v10q0 3 -1 8v14q0 34 10.5 61.5t45.5 68.5l5 7q43 51 43 103q0 38 -15.5 56.5t-35.5 18.5q-25 0 -41 -23t-16 -73v-16h-87z" />
<glyph unicode="&#x1ee8;" horiz-adv-x="1180" d="M139 535v1005h172v-1036q0 -216 61.5 -300.5t209.5 -84.5q149 0 220.5 93.5t71.5 291.5v1036h168v-102q12 12 22 32q22 45 22 120v9h-80v192h165v-192q0 -105 -44 -176q-33 -53 -85 -78v-810q0 -197 -21.5 -276.5t-74.5 -141.5q-63 -75 -156 -113.5t-210 -38.5 q-122 0 -217.5 41.5t-151.5 118.5q-38 49 -56 133q-8 43 -12 108.5t-4 168.5zM469 1686l170 272h178l-247 -272h-101z" />
<glyph unicode="&#x1ee9;" horiz-adv-x="963" d="M119 266v885h168v-889q0 -71 35.5 -110t99.5 -39q115 0 180.5 72.5t65.5 201.5v764h163v-97q11 12 20 30q22 45 22 120v9h-80v192h165v-192q0 -105 -44 -176q-32 -52 -83 -77v-960h-149v150q-33 -86 -108 -133.5t-179 -47.5q-145 0 -210.5 71t-65.5 226zM354 1274 l170 272h178l-247 -272h-101z" />
<glyph unicode="&#x1eea;" horiz-adv-x="1180" d="M139 535v1005h172v-1036q0 -216 61.5 -300.5t209.5 -84.5q149 0 220.5 93.5t71.5 291.5v1036h168v-102q12 12 22 32q22 45 22 120v9h-80v192h165v-192q0 -105 -44 -176q-33 -53 -85 -78v-810q0 -197 -21.5 -276.5t-74.5 -141.5q-63 -75 -156 -113.5t-210 -38.5 q-122 0 -217.5 41.5t-151.5 118.5q-38 49 -56 133q-8 43 -12 108.5t-4 168.5zM363 1958h178l170 -270h-101z" />
<glyph unicode="&#x1eeb;" horiz-adv-x="963" d="M119 266v885h168v-889q0 -71 35.5 -110t99.5 -39q115 0 180.5 72.5t65.5 201.5v764h163v-97q11 12 20 30q22 45 22 120v9h-80v192h165v-192q0 -105 -44 -176q-32 -52 -83 -77v-960h-149v150q-33 -86 -108 -133.5t-179 -47.5q-145 0 -210.5 71t-65.5 226zM248 1546h178 l170 -270h-101z" />
<glyph unicode="&#x1eec;" horiz-adv-x="1180" d="M139 535v1005h172v-1036q0 -216 61.5 -300.5t209.5 -84.5q149 0 220.5 93.5t71.5 291.5v1036h168v-102q12 12 22 32q22 45 22 120v9h-80v192h165v-192q0 -105 -44 -176q-33 -53 -85 -78v-810q0 -197 -21.5 -276.5t-74.5 -141.5q-63 -75 -156 -113.5t-210 -38.5 q-122 0 -217.5 41.5t-151.5 118.5q-38 49 -56 133q-8 43 -12 108.5t-4 168.5zM447 1870v15q0 74 35 116.5t108 42.5q68 0 106 -38.5t38 -99.5q0 -62 -62 -135l-17 -17q-32 -41 -32 -92v-12q0 -6 2 -15h-86v10q0 3 -1 8v14q0 34 10.5 61.5t45.5 68.5l5 7q43 51 43 103 q0 38 -15.5 56.5t-35.5 18.5q-25 0 -41 -23t-16 -73v-16h-87z" />
<glyph unicode="&#x1eed;" horiz-adv-x="963" d="M119 266v885h168v-889q0 -71 35.5 -110t99.5 -39q115 0 180.5 72.5t65.5 201.5v764h163v-97q11 12 20 30q22 45 22 120v9h-80v192h165v-192q0 -105 -44 -176q-32 -52 -83 -77v-960h-149v150q-33 -86 -108 -133.5t-179 -47.5q-145 0 -210.5 71t-65.5 226zM351 1502v15 q0 74 35 116.5t108 42.5q68 0 106 -38.5t38 -99.5q0 -62 -62 -135l-17 -17q-32 -41 -32 -92v-12q0 -6 2 -15h-86v10q0 3 -1 8v14q0 34 10.5 61.5t45.5 68.5l5 7q43 51 43 103q0 38 -15.5 56.5t-35.5 18.5q-25 0 -41 -23t-16 -73v-16h-87z" />
<glyph unicode="&#x1eee;" horiz-adv-x="1180" d="M139 535v1005h172v-1036q0 -216 61.5 -300.5t209.5 -84.5q149 0 220.5 93.5t71.5 291.5v1036h168v-102q12 12 22 32q22 45 22 120v9h-80v192h165v-192q0 -105 -44 -176q-33 -53 -85 -78v-810q0 -197 -21.5 -276.5t-74.5 -141.5q-63 -75 -156 -113.5t-210 -38.5 q-122 0 -217.5 41.5t-151.5 118.5q-38 49 -56 133q-8 43 -12 108.5t-4 168.5zM344 1708q21 95 65.5 145t110.5 50q15 0 21 -2q9 0 20 -4l107 -33l4 -1l24 -3q26 0 44 18t24 52h74q-13 -99 -56 -150t-110 -51q-18 0 -28 2l-31 8l-87 31l-12 3l-22 1q-22 0 -43 -18 q-16 -15 -29 -48h-76z" />
<glyph unicode="&#x1eef;" horiz-adv-x="963" d="M119 266v885h168v-889q0 -71 35.5 -110t99.5 -39q115 0 180.5 72.5t65.5 201.5v764h163v-97q11 12 20 30q22 45 22 120v9h-80v192h165v-192q0 -105 -44 -176q-32 -52 -83 -77v-960h-149v150q-33 -86 -108 -133.5t-179 -47.5q-145 0 -210.5 71t-65.5 226zM254 1296 q21 95 65.5 145t110.5 50q15 0 21 -2q9 0 20 -4l107 -33l4 -1l24 -3q26 0 44 18t24 52h74q-13 -99 -56 -150t-110 -51q-18 0 -28 2l-31 8l-87 31l-12 3l-22 1q-22 0 -43 -18q-16 -15 -29 -48h-76z" />
<glyph unicode="&#x1ef0;" horiz-adv-x="1180" d="M139 535v1005h172v-1036q0 -216 61.5 -300.5t209.5 -84.5q149 0 220.5 93.5t71.5 291.5v1036h168v-102q12 12 22 32q22 45 22 120v9h-80v192h165v-192q0 -105 -44 -176q-33 -53 -85 -78v-810q0 -197 -21.5 -276.5t-74.5 -141.5q-63 -75 -156 -113.5t-210 -38.5 q-122 0 -217.5 41.5t-151.5 118.5q-38 49 -56 133q-8 43 -12 108.5t-4 168.5zM513 -142h156v-170h-156v170z" />
<glyph unicode="&#x1ef1;" horiz-adv-x="963" d="M119 266v885h168v-889q0 -71 35.5 -110t99.5 -39q115 0 180.5 72.5t65.5 201.5v764h163v-97q11 12 20 30q22 45 22 120v9h-80v192h165v-192q0 -105 -44 -176q-32 -52 -83 -77v-960h-149v150q-33 -86 -108 -133.5t-179 -47.5q-145 0 -210.5 71t-65.5 226zM417 -142h156 v-170h-156v170z" />
<glyph unicode="&#x1ef2;" horiz-adv-x="1028" d="M-31 1540h205l340 -758l356 758h187l-459 -944v-596h-174v596zM295 1958h178l170 -270h-101z" />
<glyph unicode="&#x1ef3;" horiz-adv-x="909" d="M35 1151h174l246 -928l254 928h165l-354 -1202q-55 -194 -128.5 -265t-207.5 -71q-9 0 -21.5 1t-26.5 4q-28 3 -58 13v146q23 -10 50 -16q16 -3 24 -4t26 -1q70 0 112 48q20 23 41 70t42 116zM207 1546h178l170 -270h-101z" />
<glyph unicode="&#x1ef4;" horiz-adv-x="1028" d="M-31 1540h205l340 -758l356 758h187l-459 -944v-596h-174v596zM435 -142h156v-170h-156v170z" />
<glyph unicode="&#x1ef5;" horiz-adv-x="909" d="M35 1151h174l246 -928l254 928h165l-354 -1202q-55 -194 -128.5 -265t-207.5 -71q-9 0 -21.5 1t-26.5 4q-28 3 -58 13v146q23 -10 50 -16q16 -3 24 -4t26 -1q70 0 112 48q20 23 41 70t42 116zM533 -142h156v-170h-156v170z" />
<glyph unicode="&#x1ef6;" horiz-adv-x="1028" d="M-31 1540h205l340 -758l356 758h187l-459 -944v-596h-174v596zM399 1870v15q0 74 35 116.5t108 42.5q68 0 106 -38.5t38 -99.5q0 -62 -62 -135l-17 -17q-32 -41 -32 -92v-12q0 -6 2 -15h-86v10q0 3 -1 8v14q0 34 10.5 61.5t45.5 68.5l5 7q43 51 43 103q0 38 -15.5 56.5 t-35.5 18.5q-25 0 -41 -23t-16 -73v-16h-87z" />
<glyph unicode="&#x1ef7;" horiz-adv-x="909" d="M35 1151h174l246 -928l254 928h165l-354 -1202q-55 -194 -128.5 -265t-207.5 -71q-9 0 -21.5 1t-26.5 4q-28 3 -58 13v146q23 -10 50 -16q16 -3 24 -4t26 -1q70 0 112 48q20 23 41 70t42 116zM332 1502v15q0 74 35 116.5t108 42.5q68 0 106 -38.5t38 -99.5 q0 -62 -62 -135l-17 -17q-32 -41 -32 -92v-12q0 -6 2 -15h-86v10q0 3 -1 8v14q0 34 10.5 61.5t45.5 68.5l5 7q43 51 43 103q0 38 -15.5 56.5t-35.5 18.5q-25 0 -41 -23t-16 -73v-16h-87z" />
<glyph unicode="&#x1ef8;" horiz-adv-x="1028" d="M-31 1540h205l340 -758l356 758h187l-459 -944v-596h-174v596zM313 1708q21 95 65.5 145t110.5 50q15 0 21 -2q9 0 20 -4l107 -33l4 -1l24 -3q26 0 44 18t24 52h74q-13 -99 -56 -150t-110 -51q-18 0 -28 2l-31 8l-87 31l-12 3l-22 1q-22 0 -43 -18q-16 -15 -29 -48h-76z " />
<glyph unicode="&#x1ef9;" horiz-adv-x="909" d="M35 1151h174l246 -928l254 928h165l-354 -1202q-55 -194 -128.5 -265t-207.5 -71q-9 0 -21.5 1t-26.5 4q-28 3 -58 13v146q23 -10 50 -16q16 -3 24 -4t26 -1q70 0 112 48q20 23 41 70t42 116zM254 1296q21 95 65.5 145t110.5 50q15 0 21 -2q9 0 20 -4l107 -33l4 -1l24 -3 q26 0 44 18t24 52h74q-13 -99 -56 -150t-110 -51q-18 0 -28 2l-31 8l-87 31l-12 3l-22 1q-22 0 -43 -18q-16 -15 -29 -48h-76z" />
<glyph unicode="&#x2000;" horiz-adv-x="1141" />
<glyph unicode="&#x2001;" horiz-adv-x="2283" />
<glyph unicode="&#x2002;" horiz-adv-x="1141" />
<glyph unicode="&#x2003;" horiz-adv-x="2283" />
<glyph unicode="&#x2004;" horiz-adv-x="761" />
<glyph unicode="&#x2005;" horiz-adv-x="570" />
<glyph unicode="&#x2006;" horiz-adv-x="380" />
<glyph unicode="&#x2007;" horiz-adv-x="380" />
<glyph unicode="&#x2008;" horiz-adv-x="285" />
<glyph unicode="&#x2009;" horiz-adv-x="456" />
<glyph unicode="&#x200a;" horiz-adv-x="126" />
<glyph unicode="&#x2010;" horiz-adv-x="676" d="M90 485v181h494v-181h-494z" />
<glyph unicode="&#x2011;" horiz-adv-x="676" d="M90 485v181h494v-181h-494z" />
<glyph unicode="&#x2012;" horiz-adv-x="676" d="M90 485v181h494v-181h-494z" />
<glyph unicode="&#x2013;" horiz-adv-x="1206" d="M90 485v181h1024v-181h-1024z" />
<glyph unicode="&#x2014;" horiz-adv-x="2230" d="M90 485v181h2048v-181h-2048z" />
<glyph unicode="&#x202f;" horiz-adv-x="456" />
<glyph unicode="&#x205f;" horiz-adv-x="570" />
<glyph unicode="&#x25fc;" horiz-adv-x="1150" d="M0 0v1150h1150v-1150h-1150z" />
</font>
</defs>
</svg>
